<?xml version="1.0" encoding="UTF-8"?>
<svg width="128px" height="128px" viewBox="0 0 128 128" version="1.1" xmlns="http://www.w3.org/2000/svg"
>
    <!-- Generator: Sketch 45.2 (43514) - http://www.bohemiancoding.com/sketch -->
    <title>manager</title>
    <desc>Created with Sketch.</desc>
    <defs></defs>
    <g id="Page-1" stroke="none" stroke-width="1" fill="none" fill-rule="evenodd">
        <g id="50-Professions-and-Job-Icons" transform="translate(-186.000000, -1685.000000)" fill-rule="nonzero">
            <g id="manager" transform="translate(186.000000, 1685.000000)">
                <rect id="Rectangle-path" fill="#0C80D2" x="74.5405" y="89.3465" width="50.8135" height="36.083"></rect>
                <polyline id="Shape" fill="#88CD33"
                          points="11.40375 72.20475 11.40375 64.551 43.92425 64.551 43.92425 80.05425 35.61125 80.05425"></polyline>
                <rect id="Rectangle-path" fill="#88CD33" x="2.651" y="73.07225" width="32.51975"
                      height="15.50375"></rect>
                <polyline id="Shape" fill="#FFFFFF"
                          points="121.108 36.6165 99.05875 36.6165 99.05875 2.6575 125.181 2.6575 125.181 29.7415"></polyline>
                <path d="M87.51025,49.74425 L87.51025,42.13275 C87.51025,29.174 77.00475,18.6685 64.046,18.6685 C51.087,18.6685 40.58175,29.174 40.58175,42.13275 L40.48975,42.13275 L40.48975,49.74425 C37.25825,49.74425 34.63825,52.364 34.63825,55.59575 C34.63825,58.82725 37.258,61.44725 40.48975,61.44725 L40.48975,65.81575 C40.77125,69.49975 42.56775,72.77975 45.28825,74.57625 L59.43325,82.66275 C62.2735,84.5385 65.72725,84.5385 68.5675,82.66275 L82.67025,74.57625 C85.3905,72.77975 87.22875,69.49975 87.51075,65.81575 L87.51075,61.44725 C90.74225,61.44725 93.36225,58.8275 93.36225,55.59575 C93.36175,52.364 90.74175,49.74425 87.51025,49.74425 Z"
                      id="Shape" fill="#FEBBA0"></path>
                <path d="M53.47125,79.73625 L53.47125,84.825 C53.47125,86.525 52.449,88.0585 50.87975,88.7125 L34.06775,95.7175 C30.516,97.1975 28.2025,101.22 28.2025,105.06775 L28.2025,125.34275 L99.7975,125.34275 L99.7975,105.06775 C99.7975,101.22025 97.48375,97.19725 93.93225,95.7175 L77.12025,88.7125 C75.55075,88.05875 74.52875,86.525 74.52875,84.825 L74.52875,79.73625 L53.47125,79.73625 L53.47125,79.73625 Z"
                      id="Shape" fill="#FEBBA0"></path>
                <path d="M93.9325,95.71725 L77.1205,88.71225 C76.62325,88.505 76.18125,88.20875 75.809,87.8475 L64.02475,94.12275 L52.2155,87.82275 C51.838,88.195 51.3885,88.50025 50.87975,88.71225 L34.06775,95.71725 C30.516,97.19725 28.2025,101.21975 28.2025,105.0675 L28.2025,125.3425 L99.7975,125.3425 L99.7975,105.0675 C99.79775,101.21975 97.48375,97.197 93.9325,95.71725 Z"
                      id="Shape" fill="#FFFFFF"></path>
                <path d="M86.4805,17.84025 C82.054,12.19975 77.373,10.99575 73.897,12.68725 C71.14125,10.332 67.0125,7.98 60.1165,7.98 C44.54075,7.98 36.01775,19.92975 36.01775,30.55075 C36.01775,41.885 40.57725,49.10825 40.57725,49.10825 C40.57725,49.10825 42.276,37.186 53.94675,37.186 C61.749,37.186 66.4505,34.0885 69.7315,30.28725 C71.126,33.92025 77.878,35.44575 80.53025,37.7905 C85.78,42.43 87.493,46.06175 87.493,46.06175 C87.493,46.06175 95.86675,29.799 86.4805,17.84025 Z"
                      id="Shape" fill="#FBC45E"></path>
                <polygon id="Shape" fill="#FFFFFF" points="52.228 87.823 57.48225 100.3955 64.01275 94.123"></polygon>
                <polygon id="Shape" fill="#FFFFFF" points="75.79775 87.823 70.5435 100.3955 64.01275 94.123"></polygon>
                <polygon id="Shape" fill="#0C80D2"
                         points="66.0355 103.31475 69.6435 99.70675 64.046 94.10925 58.4485 99.70675 62.0565 103.31475"></polygon>
                <polygon id="Shape" fill="#10BAFC"
                         points="69.147 125.34225 66.05 103.31475 61.9755 103.31475 58.87875 125.34225"></polygon>
                <path d="M125.181,39.22875 L99.0585,39.22875 C97.616,39.22875 96.44625,38.05925 96.44625,36.6165 L96.44625,2.6575 C96.44625,1.21475 97.616,0.04525 99.0585,0.04525 L125.181,0.04525 C126.6235,0.04525 127.79325,1.21475 127.79325,2.6575 L127.79325,36.61675 C127.79325,38.05925 126.6235,39.22875 125.181,39.22875 Z M101.671,34.0045 L122.569,34.0045 L122.569,5.26975 L101.671,5.26975 L101.671,34.0045 Z"
                      id="Shape" fill="#000000"></path>
                <path d="M117.56825,19.06875 L106.67125,19.06875 C105.22875,19.06875 104.059,17.89925 104.059,16.4565 C104.059,15.01375 105.22875,13.84425 106.67125,13.84425 L117.56825,13.84425 C119.01075,13.84425 120.1805,15.01375 120.1805,16.4565 C120.1805,17.89925 119.011,19.06875 117.56825,19.06875 Z"
                      id="Shape" fill="#000000"></path>
                <path d="M117.56825,31.791 L106.67125,31.791 C105.22875,31.791 104.059,30.6215 104.059,29.17875 C104.059,27.736 105.22875,26.5665 106.67125,26.5665 L117.56825,26.5665 C119.01075,26.5665 120.1805,27.736 120.1805,29.17875 C120.1805,30.6215 119.011,31.791 117.56825,31.791 Z"
                      id="Shape" fill="#000000"></path>
                <path d="M117.56825,25.43 L106.67125,25.43 C105.22875,25.43 104.059,24.2605 104.059,22.81775 C104.059,21.375 105.22875,20.2055 106.67125,20.2055 L117.56825,20.2055 C119.01075,20.2055 120.1805,21.375 120.1805,22.81775 C120.1805,24.2605 119.011,25.43 117.56825,25.43 Z"
                      id="Shape" fill="#000000"></path>
                <path d="M117.56825,12.7075 L106.67125,12.7075 C105.22875,12.7075 104.059,11.538 104.059,10.09525 C104.059,8.6525 105.22875,7.483 106.67125,7.483 L117.56825,7.483 C119.01075,7.483 120.1805,8.6525 120.1805,10.09525 C120.1805,11.538 119.011,12.7075 117.56825,12.7075 Z"
                      id="Shape" fill="#000000"></path>
                <path d="M74.146,116.72225 L74.11175,116.72225 C72.66925,116.72225 71.4995,115.55275 71.4995,114.11 C71.4995,112.66725 72.66925,111.49775 74.11175,111.49775 L74.146,111.49775 C75.5885,111.49775 76.75825,112.66725 76.75825,114.11 C76.75825,115.55275 75.5885,116.72225 74.146,116.72225 Z"
                      id="Shape" fill="#000000"></path>
                <path d="M92.3975,116.722 L82.597,116.722 C81.1545,116.722 79.98475,115.5525 79.98475,114.10975 C79.98475,112.667 81.1545,111.4975 82.597,111.4975 L92.3975,111.4975 C93.84,111.4975 95.00975,112.667 95.00975,114.10975 C95.00975,115.5525 93.84,116.722 92.3975,116.722 Z"
                      id="Shape" fill="#000000"></path>
                <path d="M2.6465,127.95475 L2.61225,127.95475 C1.16975,127.95475 0,126.78525 0,125.3425 C0,123.89975 1.16975,122.73025 2.61225,122.73025 L2.6465,122.73025 C4.089,122.73025 5.25875,123.89975 5.25875,125.3425 C5.25875,126.78525 4.089,127.95475 2.6465,127.95475 Z"
                      id="Shape" fill="#000000"></path>
                <path d="M125.38775,127.9545 L125.3535,127.9545 C123.911,127.9545 122.74125,126.785 122.74125,125.34225 C122.74125,123.8995 123.911,122.73 125.3535,122.73 L125.38775,122.73 C126.83025,122.73 128,123.8995 128,125.34225 C128,126.785 126.83025,127.9545 125.38775,127.9545 Z"
                      id="Shape" fill="#000000"></path>
                <path d="M73.52675,58.823 C71.91675,58.823 70.60675,57.51325 70.60675,55.90325 C70.60675,54.293 71.91675,52.98325 73.52675,52.98325 C75.13675,52.98325 76.4465,54.293 76.4465,55.90325 C76.44625,57.513 75.13675,58.823 73.52675,58.823 Z"
                      id="Shape" fill="#000000"></path>
                <path d="M54.47325,58.823 C52.86325,58.823 51.5535,57.51325 51.5535,55.90325 C51.5535,54.293 52.86325,52.98325 54.47325,52.98325 C56.08325,52.98325 57.39325,54.293 57.39325,55.90325 C57.393,57.513 56.083,58.823 54.47325,58.823 Z"
                      id="Shape" fill="#000000"></path>
                <path d="M64.011,73.06825 C61.16325,73.06825 58.846,70.75125 58.846,67.90325 C58.846,66.4605 60.01575,65.291 61.45825,65.291 L66.56375,65.291 C68.00625,65.291 69.176,66.4605 69.176,67.90325 C69.17575,70.751 66.85875,73.06825 64.011,73.06825 Z"
                      id="Shape" fill="#000000"></path>
                <path d="M41.28625,77.442 L37.784,77.442 L37.784,73.07175 C37.784,71.629 36.61425,70.4595 35.17175,70.4595 L14.016,70.4595 L14.016,67.163 L31.88225,67.163 C33.32475,67.163 34.4945,65.9935 34.4945,64.55075 C34.4945,63.108 33.32475,61.9385 31.88225,61.9385 L11.40375,61.9385 C9.96125,61.9385 8.7915,63.108 8.7915,64.55075 L8.7915,70.4595 L2.651,70.4595 C1.2085,70.4595 0.03875,71.629 0.03875,73.07175 L0.03875,88.57525 C0.03875,90.018 1.2085,91.1875 2.651,91.1875 L35.1715,91.1875 C36.614,91.1875 37.78375,90.018 37.78375,88.57525 L37.78375,82.6665 L41.286,82.6665 C42.7285,82.6665 43.89825,81.497 43.89825,80.05425 C43.89825,78.6115 42.72875,77.442 41.28625,77.442 Z M32.5595,85.963 L5.26325,85.963 L5.26325,75.684 L32.5595,75.684 L32.5595,85.963 L32.5595,85.963 Z"
                      id="Shape" fill="#000000"></path>
                <path d="M125.3535,86.7335 L115.2625,86.7335 L115.2625,80.3245 C115.2625,78.88175 114.09275,77.71225 112.65025,77.71225 L87.2435,77.71225 C85.801,77.71225 84.63125,78.88175 84.63125,80.3245 L84.63125,86.7335 L79.163,86.7335 L78.125,86.301 C77.52725,86.052 77.141,85.47275 77.141,84.82475 L77.141,80.75725 L83.9695,76.842 C84.017,76.8145 84.06375,76.78575 84.1095,76.7555 C87.5285,74.49775 89.77325,70.4825 90.11475,66.0145 C90.12,65.9485 90.12225,65.88175 90.12225,65.8155 L90.12225,63.64675 C93.5145,62.54325 95.9735,59.35125 95.9735,55.5955 C95.9735,51.84 93.51475,48.64775 90.1225,47.54425 L90.1225,46.62425 C91.65925,43.3105 97.86125,28.109 88.5355,16.227 L88.53575,16.22725 C84.2135,10.7195 79.02975,8.3795 74.362,9.719 C70.41325,6.79325 65.736,5.36725 60.117,5.36725 C43.397,5.36725 33.406,18.1715 33.406,30.55025 C33.406,38.55725 35.54125,44.64175 37.01275,47.88575 C34.07675,49.21575 32.0265,52.16775 32.0265,55.59475 C32.0265,59.35025 34.4855,62.5425 37.87775,63.646 L37.87775,65.81475 C37.87775,65.881 37.88025,65.94775 37.88525,66.01375 C38.22825,70.5 40.4575,74.51525 43.8485,76.75475 C43.89525,76.78575 43.94275,76.815 43.99175,76.84275 L50.859,80.76875 L50.859,84.824 C50.859,85.4715 50.47275,86.051 49.875,86.30025 L33.063,93.30525 C28.66325,95.1385 25.5905,99.975 25.5905,105.0665 L25.5905,122.72925 L11.0975,122.72925 C9.655,122.72925 8.48525,123.89875 8.48525,125.3415 C8.48525,126.78425 9.655,127.95375 11.0975,127.95375 L116.9025,127.95375 C118.345,127.95375 119.51475,126.78425 119.51475,125.3415 C119.51475,123.89875 118.345,122.72925 116.9025,122.72925 L102.41,122.72925 L102.41,105.0665 C102.41,99.9745 99.337,95.13825 94.9375,93.30475 L91.7025,91.95675 L122.74175,91.95675 L122.74175,103.09025 L108.0845,103.09025 C106.642,103.09025 105.47225,104.25975 105.47225,105.7025 C105.47225,107.14525 106.642,108.31475 108.0845,108.31475 L122.74175,108.31475 L122.74175,117.331 C122.74175,118.77375 123.9115,119.94325 125.354,119.94325 C126.7965,119.94325 127.96625,118.77375 127.96625,117.331 L127.96625,89.34575 C127.96575,87.903 126.79625,86.7335 125.3535,86.7335 Z M60.117,10.5925 C66.66775,10.5925 70.15025,12.9215 72.20025,14.67325 C72.99025,15.3485 74.1055,15.49125 75.04075,15.036 C77.72275,13.73075 81.23125,15.38175 84.42575,19.45275 C84.426,19.45275 84.426,19.45275 84.426,19.453 C89.8995,26.4265 88.4445,35.32175 86.84075,40.52675 C85.70625,39.15675 84.20525,37.55125 82.26125,35.83325 C81.0035,34.72125 79.28975,33.8865 77.4755,33.003 C75.33675,31.96125 72.67525,30.66475 72.171,29.3515 C71.84175,28.494 71.08675,27.872 70.1815,27.714 C69.27775,27.55625 68.35525,27.885 67.755,28.5805 C64.225,32.66925 59.83775,34.57375 53.9475,34.57375 C46.729,34.57375 42.74725,38.477 40.67775,41.75175 C40.5895,41.8915 40.50375,42.0315 40.421,42.171 C39.486,39.242 38.6305,35.27175 38.6305,30.551 C38.6305,20.74025 46.66725,10.5925 60.117,10.5925 Z M46.6635,72.35325 C44.6675,71.00175 43.34225,68.53 43.102,65.71025 L43.102,61.44675 C43.102,60.004 41.93225,58.8345 40.48975,58.8345 C38.70375,58.8345 37.25075,57.38125 37.25075,55.5955 C37.25075,53.80975 38.704,52.3565 40.48975,52.3565 C41.93225,52.3565 43.102,51.187 43.102,49.74425 L43.102,49.477 C43.1055,49.45275 43.55275,46.982 45.094,44.54275 C47.0835,41.39475 50.06225,39.7985 53.94725,39.7985 C60.2035,39.7985 65.3155,37.98375 69.4825,34.26575 C71.099,35.70875 73.2255,36.7445 75.18775,37.7 C76.60775,38.3915 78.076,39.10675 78.80125,39.748 C82.5165,43.031 84.306,45.75125 84.89825,46.7575 L84.89825,49.74425 C84.89825,51.187 86.068,52.3565 87.5105,52.3565 C89.2965,52.3565 90.7495,53.80975 90.7495,55.5955 C90.7495,57.38125 89.29625,58.8345 87.5105,58.8345 C86.068,58.8345 84.89825,60.004 84.89825,61.44675 L84.89825,65.70975 C84.661,68.47225 83.2875,71.00375 81.293,72.354 L67.268,80.39575 C67.2205,80.42325 67.17375,80.452 67.128,80.48225 C65.16925,81.7755 62.83175,81.7755 60.873,80.48225 C60.82625,80.4515 60.77875,80.422 60.72975,80.39425 L46.6635,72.35325 Z M64.01275,91.16075 L55.80025,86.7705 C55.98425,86.1495 56.08325,85.496 56.08325,84.82475 L56.08325,83.756 L58.06825,84.89075 C59.902,86.08175 61.95075,86.677 64.00025,86.677 C66.05,86.677 68.09975,86.08125 69.93375,84.88975 L71.91675,83.75275 L71.91675,84.82475 C71.91675,85.50025 72.0165,86.158 72.20275,86.78275 L64.01275,91.16075 Z M65.94925,99.70675 L64.95325,100.7025 L63.1385,100.7025 L62.1425,99.70675 L64.04575,97.8035 L65.94925,99.70675 Z M56.60825,122.73025 L30.81475,122.73025 L30.81475,105.0675 C30.81475,102.12325 32.64525,99.14 35.0725,98.1285 L50.9405,91.517 L55.072,101.40275 C55.404,102.19775 56.10725,102.77775 56.95075,102.953 C57.12725,102.9895 57.30525,103.0075 57.482,103.0075 C57.65725,103.0075 57.83125,102.98875 58.00175,102.95425 L59.21725,104.17 L56.60825,122.73025 Z M58.422,95.8705 L57.4675,93.586 L59.60875,94.73075 L58.422,95.8705 Z M61.88375,122.73 L64.0125,107.5875 L66.14125,122.73 L61.88375,122.73 Z M70.55775,93.586 L69.60325,95.8705 L68.4165,94.73075 L70.55775,93.586 Z M92.92775,98.1285 C95.35475,99.13975 97.18525,102.123 97.18525,105.0675 L97.18525,122.73025 L71.41725,122.73025 L68.81625,104.22825 L70.0795,102.965 C70.232,102.9925 70.387,103.00775 70.5435,103.00775 C70.72025,103.00775 70.89825,102.98975 71.07475,102.95325 C71.91825,102.778 72.6215,102.19775 72.9535,101.403 L77.08125,91.526 L92.92775,98.1285 Z M110.038,86.7335 L89.85575,86.7335 L89.85575,82.93675 L110.038,82.93675 L110.038,86.7335 Z"
                      id="Shape" fill="#000000"></path>
                <path d="M18.91125,83.7285 C17.3095,83.7285 16.00625,82.42525 16.00625,80.82325 C16.00625,79.22125 17.3095,77.918 18.91125,77.918 C20.51325,77.918 21.8165,79.22125 21.8165,80.82325 C21.8165,82.42525 20.51325,83.7285 18.91125,83.7285 Z"
                      id="Shape" fill="#000000"></path>
            </g>
        </g>
    </g>
</svg>