<?xml version="1.0" encoding="UTF-8"?>
<svg width="128px" height="128px" viewBox="0 0 128 128" version="1.1" xmlns="http://www.w3.org/2000/svg"
>
    <!-- Generator: Sketch 45.2 (43514) - http://www.bohemiancoding.com/sketch -->
    <title>photographer</title>
    <desc>Created with Sketch.</desc>
    <defs></defs>
    <g id="Page-1" stroke="none" stroke-width="1" fill="none" fill-rule="evenodd">
        <g id="50-Professions-and-Job-Icons" transform="translate(-1386.000000, -1086.000000)" fill-rule="nonzero">
            <g id="photographer" transform="translate(1386.000000, 1086.000000)">
                <path d="M38.82825,38.82125 C32.905,44.7445 23.3015,44.7445 17.3785,38.82125 C11.45525,32.898 11.45525,23.2945 17.3785,17.3715 C23.30175,11.44825 32.90525,11.44825 38.82825,17.3715 C44.75125,23.29475 44.75125,32.89825 38.82825,38.82125 Z"
                      id="Shape" fill="#FFD41D"></path>
                <path d="M87.45075,59.46725 L87.45075,100.1415 L125.39025,100.1415 L125.39025,59.46725 L87.45075,59.46725 Z M121.662,92.0915 L91.179,92.0915 L91.179,63.18675 L121.662,63.18675 L121.662,92.0915 Z"
                      id="Shape" fill="#FFFFFF"></path>
                <rect id="Rectangle-path" fill="#FF5957" x="93.90775" y="65.775" width="25.0245" height="23.73"></rect>
                <path d="M53.4195,79.80075 L53.4195,84.8845 C53.4195,86.583 52.39825,88.11475 50.8305,88.76825 L34.035,95.7665 C30.4865,97.24525 28.1755,101.2635 28.1755,105.10775 L28.1755,125.363 L99.70125,125.363 L99.70125,105.10775 C99.70125,101.264 97.38975,97.245 93.84175,95.7665 L77.04625,88.76825 C75.47825,88.115 74.45725,86.583 74.45725,84.8845 L74.45725,79.80075 L53.4195,79.80075 Z"
                      id="Shape" fill="#FEBBA0"></path>
                <path d="M87.42525,49.838 L87.42525,42.23375 C87.42525,29.2875 76.93,18.79225 63.98375,18.79225 C51.03725,18.79225 40.54225,29.2875 40.54225,42.23375 L40.4505,42.23375 L40.4505,49.838 C37.222,49.838 34.60475,52.45525 34.60475,55.68375 C34.60475,58.91225 37.222,61.5295 40.4505,61.5295 L40.4505,65.89375 C40.73175,69.57425 42.5265,72.851 45.24425,74.64575 L59.3755,82.72425 C62.213,84.59825 65.66325,84.59825 68.50075,82.72425 L82.58975,74.64575 C85.30725,72.851 87.144,69.57425 87.4255,65.89375 L87.4255,61.52925 C90.654,61.52925 93.27125,58.912 93.27125,55.6835 C93.271,52.45525 90.65375,49.838 87.42525,49.838 Z"
                      id="Shape" fill="#FEBBA0"></path>
                <path d="M93.841,95.7665 L77.0455,88.76825 C75.74675,88.22725 74.82525,87.0825 74.5465,85.74 C72.3275,89.253 68.413,91.588 63.95075,91.588 C59.4755,91.588 55.551,89.23925 53.3355,85.70925 C53.0645,87.06475 52.13925,88.223 50.8305,88.76825 L34.035,95.7665 C30.4865,97.24525 28.1755,101.2635 28.1755,105.10775 L28.1755,125.363 L99.701,125.363 L99.701,105.10775 C99.7005,101.2635 97.38925,97.2445 93.841,95.7665 Z"
                      id="Shape" fill="#89CD37"></path>
                <path d="M40.4505,42.965 C40.4505,42.965 29.15825,30.31475 41.39025,22.5875 C49.3575,17.55475 57.187,22.231 57.187,22.231 C57.187,22.231 69.17,4.14175 86.12975,13.92825 C103.7705,24.1075 87.42525,42.23375 87.42525,42.23375 C84.00225,39.7305 79.30275,34.97975 74.73725,34.97975 C65.90375,34.97975 68.40375,43.93975 57.68725,43.93975 C46.97075,43.93975 46.4655,37.9375 40.4505,42.965 Z"
                      id="Shape" fill="#703E41"></path>
                <rect id="Rectangle-path" fill="#0084FF" x="45.161" y="102.14925" width="37.57975"
                      height="23.21325"></rect>
                <circle id="Oval" fill="#074761" cx="63.951" cy="113.75475" r="4.8715"></circle>
                <polygon id="Shape" fill="#074761"
                         points="72.316 96.32975 55.58525 96.32975 54.109 102.14825 73.7925 102.14825"></polygon>
                <rect id="Rectangle-path" fill="#0F8EE3" x="2.62275" y="64.0345" width="22.7045"
                      height="13.0485"></rect>
                <path d="M6.43,30.706 L2.644,30.706 C1.203,30.706 0.03425,29.53775 0.03425,28.09625 C0.03425,26.65475 1.203,25.4865 2.644,25.4865 L6.43,25.4865 C7.871,25.4865 9.03975,26.65475 9.03975,28.09625 C9.03975,29.53775 7.87125,30.706 6.43,30.706 Z"
                      id="Shape" fill="#000000"></path>
                <path d="M28.1035,9.03275 C26.6625,9.03275 25.49375,7.8645 25.49375,6.423 L25.49375,2.637 C25.49375,1.19575 26.6625,0.02725 28.1035,0.02725 C29.5445,0.02725 30.71325,1.1955 30.71325,2.637 L30.71325,6.423 C30.71325,7.86425 29.5445,9.03275 28.1035,9.03275 Z"
                      id="Shape" fill="#000000"></path>
                <path d="M12.778,15.38075 C12.11,15.38075 11.44225,15.126 10.93275,14.61625 L8.2555,11.93925 C7.2365,10.92025 7.2365,9.26775 8.2555,8.2485 C9.275,7.22975 10.927,7.2295 11.9465,8.2485 L14.6235,10.9255 C15.6425,11.9445 15.6425,13.597 14.6235,14.61625 C14.1135,15.126 13.4455,15.38075 12.778,15.38075 Z"
                      id="Shape" fill="#000000"></path>
                <path d="M43.42875,15.38075 C42.76075,15.38075 42.093,15.126 41.5835,14.61625 C40.5645,13.59725 40.5645,11.94475 41.5835,10.9255 L44.26075,8.24825 C45.28025,7.2295 46.93225,7.22925 47.95175,8.24825 C48.971,9.26725 48.97075,10.91975 47.95175,11.939 L45.2745,14.616 C44.76425,15.126 44.0965,15.38075 43.42875,15.38075 Z"
                      id="Shape" fill="#000000"></path>
                <path d="M10.101,48.70875 C9.433,48.70875 8.76525,48.454 8.25575,47.94425 C7.23675,46.92525 7.23675,45.27275 8.25575,44.25325 L10.74825,41.76075 C11.7675,40.74175 13.4195,40.74175 14.43925,41.76075 C15.45825,42.77975 15.45825,44.43225 14.43925,45.45175 L11.94675,47.94425 C11.4365,48.454 10.769,48.70875 10.101,48.70875 Z"
                      id="Shape" fill="#000000"></path>
                <path d="M125.39025,102.788 L106.42075,102.788 C104.97975,102.788 103.811,101.61975 103.811,100.17825 C103.811,98.73675 104.9795,97.5685 106.42075,97.5685 L122.7805,97.5685 L122.7805,62.114 L99.70075,62.114 C98.25975,62.114 97.091,60.94575 97.091,59.50425 C97.091,58.06275 98.25975,56.8945 99.70075,56.8945 L125.39025,56.8945 C126.83125,56.8945 128,58.06275 128,59.50425 L128,100.1785 C128,101.61975 126.83125,102.788 125.39025,102.788 Z"
                      id="Shape" fill="#000000"></path>
                <path d="M118.53025,91.76825 L94.3105,91.76825 C92.8695,91.76825 91.70075,90.6 91.70075,89.1585 L91.70075,66.193 C91.70075,64.75175 92.86925,63.58325 94.3105,63.58325 L118.53025,63.58325 C119.97125,63.58325 121.14,64.7515 121.14,66.193 L121.14,89.1585 C121.13975,90.6 119.9715,91.76825 118.53025,91.76825 Z M96.9205,86.549 L115.92075,86.549 L115.92075,68.803 L96.9205,68.803 L96.9205,86.549 Z"
                      id="Shape" fill="#000000"></path>
                <path d="M73.4555,58.908 C71.84725,58.908 70.53825,57.5995 70.53825,55.99125 C70.53825,54.38275 71.847,53.074 73.4555,53.074 C75.06375,53.074 76.37225,54.3825 76.37225,55.99125 C76.372,57.5995 75.06375,58.908 73.4555,58.908 Z"
                      id="Shape" fill="#000000"></path>
                <path d="M54.42025,58.908 C52.812,58.908 51.5035,57.5995 51.5035,55.99125 C51.5035,54.38275 52.812,53.074 54.42025,53.074 C56.0285,53.074 57.3375,54.3825 57.3375,55.99125 C57.3375,57.5995 56.02875,58.908 54.42025,58.908 Z"
                      id="Shape" fill="#000000"></path>
                <path d="M63.94875,73.13925 C61.10375,73.13925 58.78875,70.8245 58.78875,67.97925 C58.78875,66.538 59.9575,65.3695 61.3985,65.3695 L66.499,65.3695 C67.94,65.3695 69.10875,66.53775 69.10875,67.97925 C69.1085,70.8245 66.794,73.13925 63.94875,73.13925 Z"
                      id="Shape" fill="#000000"></path>
                <path d="M2.644,127.9725 L2.60975,127.9725 C1.16875,127.9725 0,126.80425 0,125.363 C0,123.92175 1.16875,122.75325 2.60975,122.75325 L2.644,122.75325 C4.085,122.75325 5.25375,123.9215 5.25375,125.363 C5.25375,126.8045 4.085,127.9725 2.644,127.9725 Z"
                      id="Shape" fill="#000000"></path>
                <path d="M125.266,127.97225 L125.23175,127.97225 C123.79075,127.97225 122.622,126.804 122.622,125.3625 C122.622,123.921 123.7905,122.75275 125.23175,122.75275 L125.266,122.75275 C126.707,122.75275 127.87575,123.921 127.87575,125.3625 C127.87575,126.804 126.70725,127.97225 125.266,127.97225 Z"
                      id="Shape" fill="#000000"></path>
                <path d="M25.327,61.425 L2.6225,61.425 C1.1815,61.425 0.01275,62.59325 0.01275,64.03475 L0.01275,94.3075 C0.01275,95.74875 1.1815,96.91725 2.6225,96.91725 L25.327,96.91725 C26.768,96.91725 27.93675,95.749 27.93675,94.3075 L27.93675,64.03475 C27.93675,62.59325 26.768,61.425 25.327,61.425 Z M5.23225,66.6445 L22.71725,66.6445 L22.71725,74.4735 L5.23225,74.4735 C5.23225,74.4735 5.23225,66.6445 5.23225,66.6445 Z M5.23225,91.69775 L5.23225,79.693 L22.71725,79.693 L22.71725,91.69775 L5.23225,91.69775 Z"
                      id="Shape" fill="#000000"></path>
                <path d="M89.7865,109.56475 C88.3455,109.56475 87.17675,108.3965 87.17675,106.955 L87.17675,106.92075 C87.17675,105.4795 88.34525,104.311 89.7865,104.311 C91.22775,104.311 92.39625,105.47925 92.39625,106.92075 L92.39625,106.955 C92.39625,108.3965 91.22775,109.56475 89.7865,109.56475 Z"
                      id="Shape" fill="#000000"></path>
                <path d="M28.1035,56.16575 C29.5445,56.16575 30.71325,54.9975 30.71325,53.556 L30.71325,50.03075 C30.71325,48.5895 29.5445,47.421 28.1035,47.421 C26.6625,47.421 25.49375,48.58925 25.49375,50.03075 L25.49375,53.55575 C25.49375,54.997 26.662,56.16575 28.1035,56.16575 Z"
                      id="Shape" fill="#000000"></path>
                <path d="M116.78925,122.75325 L102.3105,122.75325 L102.3105,105.10775 C102.3105,100.02075 99.2405,95.189 94.84525,93.3575 L78.04975,86.3595 C77.45275,86.11075 77.06675,85.532 77.06675,84.88475 L77.06675,80.821 L83.8885,76.9095 C83.936,76.88225 83.98275,76.8535 84.0285,76.823 C87.444,74.56725 89.68675,70.55575 90.028,66.09225 C90.03325,66.02625 90.0355,63.72675 90.0355,63.72675 C93.4245,62.6245 95.881,59.43525 95.881,55.68325 C95.881,51.93125 93.42425,48.7425 90.03525,47.64 L90.03525,43.1865 C92.1035,40.6335 98.07725,32.39775 96.7355,23.9115 C95.94175,18.89025 92.81225,14.7705 87.4345,11.6675 C79.5975,7.14525 71.454,7.33475 63.88475,12.216 C60.40325,14.46125 57.83325,17.20975 56.37875,18.98125 C53.65625,17.922 48.66975,16.684 43.2285,18.759 C42.50725,17.59 41.6545,16.50675 40.674,15.526 C37.31625,12.16825 32.852,10.31925 28.1035,10.31925 C23.355,10.31925 18.891,12.16825 15.53325,15.526 C12.1755,18.88375 10.32625,23.34775 10.32625,28.09625 C10.32625,32.84475 12.1755,37.30875 15.53325,40.6665 C18.97575,44.10875 23.53625,45.86475 28.11525,45.86475 C31.31575,45.86475 34.524,45.00325 37.367,43.2635 C37.53925,43.5005 37.69925,43.713 37.84125,43.89525 L37.84125,47.64 C34.45225,48.74225 31.99575,51.9315 31.99575,55.6835 C31.99575,59.4355 34.45225,62.6245 37.84125,63.727 C37.84125,63.727 37.84375,66.0265 37.84875,66.0925 C38.1915,70.5745 40.4185,74.58575 43.80625,76.82325 C43.853,76.854 43.9005,76.88325 43.94925,76.91125 L50.81,80.8335 L50.81,84.885 C50.81,85.532 50.424,86.11075 49.827,86.35975 L33.0315,93.358 C28.636,95.1895 25.56625,100.02125 25.56625,105.108 L25.56625,122.7535 L11.08675,122.7535 C9.64575,122.7535 8.477,123.92175 8.477,125.36325 C8.477,126.80475 9.64575,127.973 11.08675,127.973 L116.78925,127.973 C118.23025,127.973 119.399,126.80475 119.399,125.36325 C119.399,123.92175 118.23025,122.75325 116.78925,122.75325 Z M55.849,24.4715 C57.04575,25.186 58.593,24.83425 59.363,23.67225 C59.39025,23.6315 62.11,19.57125 66.713,16.603 C72.61375,12.798 78.70725,12.65875 84.8255,16.18875 C88.82125,18.49425 91.0295,21.282 91.57725,24.7115 C92.43025,30.05275 89.048,35.7105 86.98175,38.5785 C86.9125,38.523 86.84325,38.46675 86.773,38.4105 C83.4315,35.71925 79.2735,32.37 74.73725,32.37 C69.286,32.37 66.9925,35.21275 65.1495,37.49675 C63.354,39.722 62.05675,41.33 57.68725,41.33 C53.5485,41.33 51.24325,40.3715 49.20925,39.52575 C47.8085,38.94325 46.38475,38.351 44.75425,38.351 C43.63225,38.351 42.412,38.6315 41.03525,39.389 C39.69975,37.368 37.9265,33.97575 38.38125,30.733 C38.70825,28.40175 40.14825,26.459 42.78425,24.79375 C49.2435,20.71375 55.59375,24.32275 55.849,24.4715 Z M19.224,36.976 C16.852,34.60425 15.5455,31.45075 15.5455,28.0965 C15.5455,24.74225 16.852,21.58875 19.224,19.217 C21.59575,16.84525 24.74925,15.53925 28.10325,15.53925 C31.45775,15.53925 34.611,16.8455 36.98275,19.217 C37.6195,19.854 38.18025,20.55175 38.6625,21.30125 C35.52525,23.65775 33.6925,26.58025 33.212,30.008 C32.76675,33.182 33.60375,36.25025 34.73425,38.757 C29.84475,41.8075 23.38125,41.13325 19.224,36.976 Z M46.61825,72.425 C44.624,71.07475 43.30025,68.6055 43.06025,65.7885 L43.06025,61.52925 C43.06025,60.088 41.89175,58.9195 40.4505,58.9195 C38.66625,58.9195 37.21475,57.46775 37.21475,55.68375 C37.21475,53.89975 38.6665,52.448 40.4505,52.448 C41.8915,52.448 43.06025,51.27975 43.06025,49.83825 L43.06025,44.235 C44.48775,43.22175 45.10325,43.47125 47.2055,44.3455 C49.4425,45.2755 52.5065,46.55 57.6875,46.55 C64.552,46.55 67.24525,43.212 69.21175,40.775 C70.81425,38.789 71.7815,37.59 74.7375,37.59 C77.433,37.59 80.79675,40.29925 83.49925,42.476 C83.951,42.83975 84.388,43.191 84.8155,43.5265 L84.8155,49.83875 C84.8155,51.28 85.98425,52.4485 87.42525,52.4485 C89.2095,52.4485 90.661,53.90025 90.661,55.68425 C90.661,57.46825 89.2095,58.9195 87.42525,58.9195 C85.98425,58.9195 84.8155,60.08775 84.8155,61.52925 L84.8155,65.788 C84.5785,68.5475 83.20625,71.07675 81.214,72.42575 L67.2025,80.45975 C67.155,80.48725 67.10825,80.51575 67.0625,80.54625 C65.10575,81.83825 62.77025,81.83825 60.8135,80.54625 C60.76675,80.5155 60.71925,80.486 60.6705,80.45825 L46.61825,72.425 Z M71.8525,85.043 C69.9805,87.52 67.087,88.9785 63.9505,88.9785 C60.79875,88.9785 57.89525,87.50825 56.024,85.012 C56.02475,84.9695 56.02875,84.92775 56.02875,84.885 L56.02875,83.81725 L58.01175,84.951 C59.8435,86.14075 61.8905,86.7355 63.938,86.7355 C65.98575,86.7355 68.0335,86.14025 69.86575,84.95 L71.84675,83.81425 L71.84675,84.88525 C71.847,84.93775 71.8515,84.99 71.8525,85.043 Z M42.551,102.14825 L42.551,122.75325 L30.785,122.75325 L30.785,105.10775 C30.785,102.16625 32.6135,99.186 35.0385,98.1755 L51.834,91.17725 C52.48425,90.906 53.07525,90.54225 53.5955,90.1065 C55.44525,91.8485 57.69675,93.089 60.156,93.7205 L55.585,93.7205 C54.391,93.7205 53.34925,94.53075 53.05575,95.6885 L52.07875,99.53875 L45.16075,99.53875 C43.7195,99.5385 42.551,100.707 42.551,102.14825 Z M70.28575,98.9395 L70.43775,99.5385 L57.4635,99.5385 L57.6155,98.9395 L70.28575,98.9395 Z M80.131,122.75325 L47.7705,122.75325 L47.7705,104.758 L80.131,104.758 L80.131,122.75325 Z M97.09075,122.75325 L92.3965,122.75325 L92.3965,115.398 C92.3965,113.95675 91.228,112.78825 89.78675,112.78825 C88.34575,112.78825 87.177,113.9565 87.177,115.398 L87.177,122.75325 L85.35025,122.75325 L85.35025,102.14825 C85.35025,100.707 84.1815,99.5385 82.7405,99.5385 L75.8225,99.5385 L74.8455,95.68825 C74.552,94.53075 73.51,93.72025 72.31625,93.72025 L67.74375,93.72025 C70.19725,93.09 72.445,91.8535 74.2925,90.11775 C74.81,90.549 75.39675,90.9085 76.04175,91.17725 L92.83725,98.17525 C95.262,99.1855 97.0905,102.16575 97.0905,105.1075 L97.0905,122.75325 L97.09075,122.75325 L97.09075,122.75325 Z"
                      id="Shape" fill="#000000"></path>
                <path d="M63.95075,106.27425 C59.8255,106.27425 56.4695,109.63025 56.4695,113.7555 C56.4695,117.88075 59.8255,121.23675 63.95075,121.23675 C68.076,121.23675 71.432,117.88075 71.432,113.7555 C71.432,109.63025 68.0755,106.27425 63.95075,106.27425 Z M63.95075,116.0175 C62.7035,116.0175 61.689,115.00275 61.689,113.75575 C61.689,112.50875 62.70375,111.494 63.95075,111.494 C65.198,111.494 66.2125,112.50875 66.2125,113.75575 C66.2125,115.00275 65.19775,116.0175 63.95075,116.0175 Z"
                      id="Shape" fill="#000000"></path>
            </g>
        </g>
    </g>
</svg>