<?xml version="1.0" encoding="UTF-8"?>
<svg width="128px" height="118px" viewBox="0 0 128 118" version="1.1" xmlns="http://www.w3.org/2000/svg"
>
    <!-- Generator: Sketch 45.2 (43514) - http://www.bohemiancoding.com/sketch -->
    <title>painter</title>
    <desc>Created with Sketch.</desc>
    <defs></defs>
    <g id="Page-1" stroke="none" stroke-width="1" fill="none" fill-rule="evenodd">
        <g id="50-Professions-and-Job-Icons" transform="translate(-486.000000, -1390.000000)" fill-rule="nonzero">
            <g id="painter" transform="translate(486.000000, 1390.000000)">
                <path d="M124.293739,74.2272389 C125.693754,77.0657252 125.331212,80.2474841 121.669864,83.2568584 C117.329092,86.8247992 105.586776,88.994203 97.7485848,79.6225581 C89.9103938,70.2509133 91.6158129,57.5550613 100.694331,49.9778647 C109.77285,42.4006681 122.778947,47.3499323 124.847407,55.0077082 C126.731727,61.9834292 119.005817,62.3394249 119.527298,66.6774841 C119.948476,70.1783171 122.698355,70.992592 124.293739,74.2272389 Z"
                      id="Shape" fill="#D3D1DA"></path>
                <ellipse id="Oval" fill="#FFAF18" cx="112.562901" cy="75.6906385" rx="4.1708538"
                         ry="4.1701649"></ellipse>
                <ellipse id="Oval" fill="#FF5957" cx="102.479595" cy="66.2553784" rx="4.1708538"
                         ry="4.1701649"></ellipse>
                <ellipse id="Oval" fill="#35BD69" cx="113.29023" cy="56.7213277" rx="4.1708538"
                         ry="4.1701649"></ellipse>
                <ellipse id="Oval" fill="#304967"
                         transform="translate(80.994247, 8.949009) rotate(-59.999272) translate(-80.994247, -8.949009) "
                         cx="80.9942471" cy="8.94900923" rx="5.69001127" ry="4.92146466"></ellipse>
                <path d="M53.3605302,69.798871 L53.3605302,74.8761142 C53.3605302,76.5722706 52.3405224,78.1022791 50.7743314,78.7548964 L33.9973489,85.7440888 C30.4527719,87.2209598 28.1442807,91.2342072 28.1442807,95.0733235 L28.1442807,115.302964 L99.5909864,115.302964 L99.5909864,95.0735729 C99.5909864,91.2347061 97.2819961,87.2207104 93.7379181,85.7443383 L76.9609357,78.7551459 C75.3947446,78.102778 74.3747368,76.5725201 74.3747368,74.8763636 L74.3747368,69.7991205 L53.3605302,69.7991205 L53.3605302,69.798871 Z"
                      id="Shape" fill="#89CD37"></path>
                <path d="M74.3739883,71.2552854 L74.3739883,84.2390275 C74.3739883,89.9970782 69.6387368,94.7080973 63.8797349,94.7080973 L63.8797349,94.7080973 C58.1207329,94.7080973 53.3600312,89.9970782 53.3600312,84.2390275 L53.3600312,71.2552854 L74.3739883,71.2552854 L74.3739883,71.2552854 Z"
                      id="Shape" fill="#FEBBA0"></path>
                <path d="M87.3286862,39.8742706 L87.3286862,32.2798605 C87.3286862,19.3500042 76.8451618,8.86821142 63.9131696,8.86821142 C50.9809279,8.86821142 40.497653,19.3500042 40.497653,32.2798605 L40.4058324,32.2798605 L40.4058324,39.8742706 C37.1808811,39.8742706 34.5664873,42.4882326 34.5664873,45.7126512 C34.5664873,48.9370698 37.1808811,51.5510317 40.4058324,51.5510317 L40.4058324,55.909797 C40.6867836,59.5855095 42.4795322,62.8580761 45.19423,64.6505285 L59.3099103,72.7189345 C62.1443743,74.5907188 65.5908928,74.5907188 68.4251072,72.7189345 L82.4986199,64.6505285 C85.2130682,62.8580761 87.0477349,59.5855095 87.3291852,55.909797 L87.3291852,51.5507822 C90.5541365,51.5507822 93.1685302,48.9368203 93.1685302,45.7124017 C93.1680312,42.4882326 90.5536374,39.8742706 87.3286862,39.8742706 Z"
                      id="Shape" fill="#FEBBA0"></path>
                <path d="M74.7365302,23.8187865 C71.9714308,17.5715222 69.2033372,12.739759 66.5362963,9.01515011 C65.6749786,8.91935307 64.7999376,8.86821142 63.9131696,8.86821142 C50.9809279,8.86821142 40.497653,19.3500042 40.497653,32.2798605 L40.4060819,32.2798605 L40.4060819,34.6520846 C40.4058324,34.6520846 60.306963,38.9360085 74.7365302,23.8187865 Z"
                      id="Shape" fill="#9E554C"></path>
                <ellipse id="Oval" fill="#FFAF18" cx="43.4271813" cy="96.9613235" rx="5.80092008"
                         ry="5.79996195"></ellipse>
                <ellipse id="Oval" fill="#FF5957" cx="50.4734191" cy="104.006397" rx="4.16212086"
                         ry="4.1614334"></ellipse>
                <path d="M16.6821676,50.8535095 L18.7743314,84.5398901 C18.7743314,87.2706047 16.5599064,89.4846638 13.8287407,89.4846638 L13.8287407,89.4846638 C11.0973255,89.4846638 8.88290058,87.2708541 8.88290058,84.5398901 L10.9753138,50.8535095 L16.6821676,50.8535095 Z"
                      id="Shape" fill="#102F50"></path>
                <path d="M5.46707212,42.4929725 C5.46682261,37.8755053 8.01784016,30.7361311 15.0049435,26.4250148 C16.6459883,34.3936321 22.1909084,37.8755053 22.1909084,42.4929725 C22.1909084,47.1101903 18.4469708,50.8535095 13.8289903,50.8535095 C9.21076023,50.8535095 5.46682261,47.1101903 5.46707212,42.4929725 Z"
                      id="Shape" fill="#9E554C"></path>
                <ellipse id="Oval" fill="#304967"
                         transform="translate(74.733997, 19.766210) rotate(-59.999272) translate(-74.733997, -19.766210) "
                         cx="74.7339972" cy="19.7662099" rx="10.9264185" ry="20.3160097"></ellipse>
                <path d="M2.64109162,117.911687 L2.60690838,117.911687 C1.16722027,117.911687 0,116.74466 0,115.305209 C0,113.865759 1.16722027,112.698732 2.60690838,112.698732 L2.64109162,112.698732 C4.08053021,112.698732 5.248,113.86551 5.248,115.305209 C5.248,116.744909 4.08053021,117.911687 2.64109162,117.911687 Z"
                      id="Shape" fill="#000000"></path>
                <path d="M73.3744405,48.9328288 C71.7678285,48.9328288 70.4606316,47.6260973 70.4606316,46.0197505 C70.4606316,44.4131543 71.768078,43.1064228 73.3744405,43.1064228 C74.9808031,43.1064228 76.288,44.4131543 76.288,46.0197505 C76.2877505,47.6255983 74.9810526,48.9328288 73.3744405,48.9328288 Z"
                      id="Shape" fill="#000000"></path>
                <path d="M54.360078,48.9328288 C52.7534659,48.9328288 51.4465185,47.6260973 51.4465185,46.0197505 C51.4465185,44.4131543 52.7534659,43.1064228 54.360078,43.1064228 C55.9666901,43.1064228 57.2738869,44.4131543 57.2738869,46.0197505 C57.2741365,47.6255983 55.9666901,48.9328288 54.360078,48.9328288 Z"
                      id="Shape" fill="#000000"></path>
                <path d="M63.8782378,63.1459662 C61.0362885,63.1459662 58.7240546,60.8341142 58.7240546,57.9926342 C58.7240546,56.5531839 59.8912749,55.3861564 61.330963,55.3861564 L66.4257622,55.3861564 C67.8652008,55.3861564 69.0326706,56.5529345 69.0326706,57.9926342 C69.0321715,60.8341142 66.7201871,63.1459662 63.8782378,63.1459662 Z"
                      id="Shape" fill="#000000"></path>
                <path d="M125.12786,112.696736 L125.093676,112.696736 C123.654238,112.696736 122.486768,113.863514 122.486768,115.303214 C122.486768,116.742913 123.653988,117.909691 125.093676,117.909691 L125.12786,117.909691 C126.567298,117.909691 127.734768,116.742913 127.734768,115.303214 C127.734768,113.863514 126.567298,112.696736 125.12786,112.696736 Z"
                      id="Shape" fill="#000000"></path>
                <path d="M70.8299103,106.702186 L70.8640936,106.702186 C72.3035322,106.702186 73.4710019,105.535408 73.4710019,104.095708 C73.4710019,102.656008 72.3037817,101.48923 70.8640936,101.48923 L70.8299103,101.48923 C69.3904717,101.48923 68.2230019,102.656008 68.2230019,104.095708 C68.2230019,105.535408 69.3904717,106.702186 70.8299103,106.702186 Z"
                      id="Shape" fill="#000000"></path>
                <path d="M89.07777,106.701937 C90.5172086,106.701937 91.6846784,105.535159 91.6846784,104.095459 C91.6846784,102.655759 90.5174581,101.488981 89.07777,101.488981 L79.2973723,101.488981 C77.8579337,101.488981 76.6904639,102.655759 76.6904639,104.095459 C76.6904639,105.535159 77.8576842,106.701937 79.2973723,106.701937 L89.07777,106.701937 Z"
                      id="Shape" fill="#000000"></path>
                <path d="M49.3735673,91.0179154 C46.0952203,87.7403594 40.7613879,87.7403594 37.4830409,91.0179154 C34.2049435,94.2957209 34.2049435,99.6289218 37.4830409,102.906478 C39.1223392,104.545256 41.2751345,105.36452 43.4284288,105.36452 C43.5649123,105.36452 43.7018947,105.361027 43.8383782,105.354292 C44.0988694,106.647801 44.7326316,107.836782 45.686768,108.791011 C46.965271,110.069302 48.6649513,110.773061 50.4729201,110.773061 C52.2808889,110.773061 53.9805692,110.069053 55.2588226,108.791011 L55.2590721,108.791011 C56.537575,107.512719 57.2414503,105.813319 57.2414503,104.005649 C57.2414503,102.197979 56.5373255,100.49833 55.2590721,99.2202875 C54.3046862,98.2660592 53.1155088,97.6321522 51.8217856,97.372203 C51.9330682,95.0852981 51.1166628,92.761222 49.3735673,91.0179154 Z M41.1698402,99.220537 C39.9245224,97.9754249 39.9245224,95.9492178 41.1698402,94.7041057 C41.7926238,94.0814249 42.6102768,93.770334 43.4284288,93.770334 C44.2463314,93.770334 45.0642339,94.0814249 45.6870175,94.7041057 C46.9323353,95.9492178 46.9323353,97.9754249 45.6870175,99.220537 C44.4414503,100.465899 42.4151579,100.465899 41.1698402,99.220537 Z M50.4731696,102.451192 C50.8886082,102.451192 51.278846,102.613099 51.5730214,102.906727 C51.8664483,103.200355 52.0283821,103.591027 52.0283821,104.006148 C52.0283821,104.421268 51.8664483,104.811691 51.5730214,105.105569 L51.5727719,105.105569 C51.2790955,105.398947 50.8888577,105.560854 50.4731696,105.560854 C50.0574815,105.560854 49.6674932,105.398947 49.3733177,105.105319 C49.0798908,104.811691 48.9179571,104.421019 48.9179571,104.005899 C48.9179571,103.591027 49.0796413,103.201104 49.3728187,102.907226 C49.3730682,102.906977 49.3733177,102.906727 49.3735673,102.906478 C49.3738168,102.906228 49.3740663,102.905979 49.3743158,102.905729 C49.6682417,102.61285 50.05823,102.451192 50.4731696,102.451192 Z"
                      id="Shape" fill="#000000"></path>
                <path d="M24.7978168,42.4929725 C24.7975673,39.5055518 23.2416062,37.1201057 21.5940741,34.5947061 C20.0563275,32.2372008 18.313232,29.5653615 17.5584561,25.8998774 C17.3870409,25.0666427 16.8191501,24.36937 16.0379259,24.032334 C15.2569513,23.6950486 14.3599532,23.7606596 13.636117,24.2072135 C5.68265107,29.1148161 2.86041326,37.1248457 2.86041326,42.4929725 C2.86016374,45.4222664 4.00118519,48.1764313 6.0731384,50.2477928 C6.74707212,50.9216152 7.49411306,51.4949006 8.29529825,51.9646554 L6.28173099,84.3782326 C6.27823782,84.4321184 6.27649123,84.4862537 6.27649123,84.5398901 C6.27649123,88.7035687 9.66462378,92.0911416 13.8292398,92.0911416 C17.9936062,92.0911416 21.3817388,88.7035687 21.3817388,84.5398901 C21.3817388,84.4860042 21.3799922,84.4318689 21.376499,84.3782326 L19.3626823,51.9559239 C22.6105887,50.0499619 24.7975673,46.5229345 24.7978168,42.4929725 Z M16.1666745,84.6057505 C16.1314932,85.8645835 15.0965146,86.8779366 13.8289903,86.8779366 C12.5612164,86.8779366 11.5257388,85.8645835 11.490807,84.6055011 L13.4260273,53.4502579 C13.5600156,53.4552474 13.6940039,53.4602368 13.8287407,53.4602368 C13.9637271,53.4602368 14.0974659,53.4547484 14.2314542,53.4500085 L16.1666745,84.6057505 Z M13.8289903,48.2470317 C12.2917427,48.2470317 10.8465653,47.6485497 9.7594386,46.561852 C8.67231189,45.4749049 8.07398051,44.0299662 8.07398051,42.493222 L8.07398051,42.493222 C8.07398051,39.7714884 9.30632359,34.7069683 13.5789786,30.7595814 C14.6371618,33.4720846 16.0344327,35.6140465 17.2268538,37.4426723 C18.5437817,39.4613953 19.584,41.055518 19.584,42.4929725 C19.5837505,45.6657505 17.0022924,48.2470317 13.8289903,48.2470317 Z"
                      id="Shape" fill="#000000"></path>
                <path d="M116.968795,112.69474 L102.197146,112.69474 L102.197146,95.0735729 C102.197146,89.9928372 99.130386,85.1675603 94.739961,83.338186 L77.9629786,76.3492431 C77.3666433,76.1007696 76.9808967,75.5227442 76.9808967,74.8763636 L76.9808967,71.2550359 L76.9808967,70.8177125 L83.7950877,66.9112389 C83.8424951,66.8840465 83.889154,66.8551078 83.9348148,66.8249218 C87.3466511,64.571945 89.5870253,60.5656829 89.9276101,56.1076279 C89.9328499,56.0417674 89.9350955,55.9751586 89.9350955,55.9090486 L89.9350955,53.7451332 C93.3202339,52.6442156 95.774191,49.4592135 95.774191,45.7119027 C95.774191,41.964592 93.3204834,38.7795899 89.9350955,37.6786723 L89.9350955,35.1712347 C91.9788538,34.3250275 93.568499,32.9963425 94.591501,31.2250951 C96.5531696,27.8277928 96.0805926,23.4458266 93.2601014,18.8857378 C91.8643275,16.629019 89.955306,14.439408 87.6677739,12.4369006 C88.6236569,10.6449471 88.9495205,8.62472727 88.5824873,6.71252854 C88.1757817,4.59376744 86.9229786,2.78958985 85.1447018,1.76351374 C83.366425,0.736938689 81.1774503,0.553826638 79.1391813,1.2613277 C77.3010214,1.89922622 75.7151189,3.18974207 74.6412164,4.91109514 C71.7543548,3.92618182 68.8946901,3.36561945 66.2346355,3.28504017 C61.1725224,3.13460888 57.3005848,4.7130148 55.2323743,7.74733615 C45.0794542,11.3379789 38.1968967,20.8221353 37.9004756,31.5556448 C37.8343548,31.7851586 37.798924,32.0278943 37.798924,32.2786131 L37.798924,37.6781734 C34.4137856,38.7790909 31.9598285,41.964093 31.9598285,45.7114038 C31.9598285,49.4587146 34.4135361,52.6437167 37.798924,53.7446342 L37.798924,55.9085497 C37.798924,55.9746596 37.8014191,56.0412685 37.8064094,56.107129 C38.1487407,60.5833953 40.3733957,64.5896575 43.7572865,66.8244228 C43.8039454,66.8551078 43.8513528,66.884296 43.9002573,66.9122368 L50.7533723,70.8294376 L50.7533723,74.8758647 C50.7533723,75.5219958 50.3678752,76.1000211 49.7712904,76.3487442 L32.994308,83.338186 C28.6036335,85.1673108 25.5371228,89.9930867 25.5371228,95.0733235 L25.5371228,112.69474 L11.0743704,112.69474 C9.63493177,112.69474 8.46746199,113.861518 8.46746199,115.301218 C8.46746199,116.740918 9.63468226,117.909442 11.0743704,117.909442 L116.969045,117.909442 C118.408483,117.909442 119.575953,116.740169 119.575953,115.300719 C119.575953,113.861268 118.408733,112.69474 116.968795,112.69474 Z M80.8488421,6.18689218 C81.2056452,6.06315433 81.900538,5.90997886 82.5382924,6.27894715 C83.1767953,6.64741649 83.3916257,7.32498097 83.4627368,7.69594503 C83.5545575,8.17318393 83.524117,8.69258351 83.3828928,9.20000846 C82.7715867,8.80160254 82.1445614,8.41591966 81.5030643,8.04595349 C80.8693021,7.67997886 80.2298012,7.33371247 79.586807,7.00715433 C79.9560858,6.63145032 80.3902378,6.3458055 80.8488421,6.18689218 Z M59.3962417,10.9091374 C60.2939883,9.35418182 62.5503314,8.47579281 65.5976296,8.47579281 C69.228039,8.47579281 73.9820039,9.72339958 78.896655,12.560389 C83.2306901,15.0623383 86.7570526,18.2827653 88.8262612,21.6284271 C90.564117,24.4384736 91.0202261,26.9865751 90.0770682,28.6198647 C89.1339103,30.2534038 86.7001637,31.1315433 83.396117,31.0325032 C79.4635478,30.9137548 74.9109396,29.4703129 70.576655,26.9686131 C61.5365614,21.7499197 57.4285848,14.3164186 59.3962417,10.9091374 Z M53.7644912,14.1130994 C54.0017778,16.1812178 54.8194308,18.3897886 56.21246,20.6420169 C58.0027135,23.5363848 60.6380663,26.3197378 63.8343236,28.7398605 C55.4549396,32.9831205 46.9580351,32.7915264 43.096078,32.4021015 C43.0978246,32.3611882 43.1040624,32.3212727 43.1040624,32.279611 C43.1043119,24.6512727 47.2699259,17.7411628 53.7644912,14.1130994 Z M46.5667992,62.4322283 C44.5746901,61.0835856 43.2525224,58.6175603 43.0127407,55.8042706 L43.0127407,51.5502833 C43.0127407,50.110833 41.8455205,48.9438055 40.4058324,48.9438055 C38.6235634,48.9438055 37.1736452,47.4938774 37.1736452,45.7121522 C37.1736452,43.9304271 38.6238129,42.4804989 40.4058324,42.4804989 C41.845271,42.4804989 43.0127407,41.3137209 43.0127407,39.8740211 L43.0127407,37.6452431 C44.1243197,37.7492727 45.490152,37.830351 47.0518519,37.830351 C52.6908382,37.830351 60.8753528,36.7733404 68.7913918,31.9425751 C73.619462,34.5837294 78.7167563,36.1062537 83.238425,36.2429641 C83.4624873,36.2496998 83.6843041,36.2531924 83.9038752,36.2531924 C84.1810838,36.2531924 84.4525536,36.2457082 84.7222768,36.234981 L84.7222768,39.8745201 C84.7222768,41.3139704 85.8894971,42.4809979 87.3291852,42.4809979 C89.1114542,42.4809979 90.5613723,43.930926 90.5613723,45.7126512 C90.5613723,47.4943763 89.1112047,48.9443044 87.3291852,48.9443044 C85.8897466,48.9443044 84.7222768,50.1110825 84.7222768,51.5507822 L84.7222768,55.8042706 C84.4854893,58.5601818 83.1149162,61.0863298 81.1248031,62.4337252 L67.1286394,70.4574757 C67.081232,70.4849175 67.0345731,70.5136068 66.9889123,70.5437928 C65.03423,71.8343087 62.7015361,71.8343087 60.7468538,70.5437928 C60.7001949,70.5131078 60.6527875,70.4836702 60.603883,70.4559789 L46.5667992,62.4322283 Z M71.7675789,73.8068795 L71.7675789,84.2390275 C71.7675789,88.574592 68.2292398,92.1016195 63.8799844,92.1016195 C59.5170058,92.1016195 55.9671891,88.5743425 55.9671891,84.2390275 L55.9671891,73.8101226 L57.9480702,74.9422241 C59.7777466,76.1304567 61.8225029,76.7244482 63.8677583,76.7244482 C65.9132632,76.7244482 67.958768,76.1299577 69.7889435,74.9412262 L71.7675789,73.8068795 Z M96.9835789,112.69474 L30.7509396,112.694989 L30.7509396,95.0735729 C30.7509396,92.135797 32.5776218,89.1593531 34.9998908,88.150241 L50.7536218,81.5873953 L50.7536218,84.238778 C50.7536218,91.4485032 56.6421209,97.3143256 63.8799844,97.3143256 C71.1041248,97.3143256 76.9811462,91.4485032 76.9811462,84.238778 L76.9811462,81.5873953 L92.7351267,88.150241 C95.1571462,89.1591036 96.9838285,92.135797 96.9838285,95.0735729 L96.9838285,112.69474 L96.9835789,112.69474 L96.9835789,112.69474 Z"
                      id="Shape" fill="#000000"></path>
                <path d="M111.783173,88.9141226 C111.493489,88.9141226 111.203556,88.9083848 110.913871,88.8964101 C106.753497,88.7255222 100.744982,87.2678605 95.7489903,81.2942664 C91.5429552,76.2649218 89.6029942,70.0673023 90.2866589,63.842241 C90.9553528,57.7558858 94.0585419,52.1213235 99.0243431,47.9766047 C103.986402,43.835129 110.662113,42.5343848 116.880717,44.4967273 C122.159657,46.1624482 126.176561,49.9294672 127.364741,54.3278985 C128.867306,59.8903636 125.634121,62.7323425 123.702643,64.4297463 C122.468055,65.5146977 122.06584,65.9467822 122.116242,66.3661438 C122.255719,67.526685 122.786932,68.1441268 123.879797,69.3216321 C124.737123,70.2454249 125.804538,71.3952389 126.632671,73.0744313 C128.746542,77.360351 127.541396,81.8056829 123.326129,85.2703425 C120.551548,87.5502622 116.19306,88.9141226 111.783173,88.9141226 Z M110.995462,48.808592 C108.468897,48.808592 105.346495,49.490148 102.365068,51.9783763 C98.4389864,55.2551839 95.98977,59.6705793 95.4692865,64.4115349 C94.9418168,69.2121142 96.461848,74.0201776 99.7486784,77.950351 C106.791673,86.37126 116.960561,83.753556 120.014596,81.2433742 C123.062643,78.7379323 122.653442,76.7938013 121.955805,75.3800465 L121.955805,75.3800465 C121.464265,74.383408 120.812288,73.6808964 120.057513,72.86737 C118.823423,71.5376871 117.287173,69.882444 116.939353,66.9888245 C116.552858,63.7736364 118.695423,61.8898774 120.259867,60.5150402 C122.151173,58.8525624 122.960593,58.0193277 122.330823,55.6872685 C121.612725,53.0284017 118.857107,50.5873235 115.310784,49.468444 C114.391579,49.1780592 112.85483,48.808592 110.995462,48.808592 Z"
                      id="Shape" fill="#000000"></path>
                <path d="M112.567641,82.4647865 C110.688561,82.4647865 108.818464,81.6904271 107.480577,80.1741395 C105.008405,77.3715772 105.27738,73.0809175 108.079906,70.6091543 C110.882932,68.1371416 115.1743,68.4065708 117.646222,71.2083848 C120.118643,74.0104482 119.849419,78.3011078 117.046893,80.77337 L117.046893,80.77337 C115.760904,81.9077167 114.161029,82.4647865 112.567641,82.4647865 Z M115.32276,78.8187611 L115.325255,78.8187611 L115.32276,78.8187611 Z M112.562651,74.1281987 C112.195119,74.1281987 111.82584,74.2566765 111.52892,74.5186216 C110.882183,75.0889133 110.820055,76.0790655 111.39069,76.725945 C111.961076,77.3720761 112.951392,77.4346934 113.598129,76.8641522 C113.911517,76.5877378 114.098402,76.2060465 114.1246,75.7889302 C114.151049,75.3720634 114.012819,74.9699154 113.736608,74.6568288 C113.427712,74.3070698 112.996304,74.1281987 112.562651,74.1281987 Z"
                      id="Shape" fill="#000000"></path>
                <path d="M102.489825,73.0327696 C102.345856,73.0327696 102.201887,73.0282791 102.05692,73.0192981 C100.249949,72.9060381 98.5954308,72.0960042 97.39777,70.73863 C94.9255984,67.9368161 95.1948226,63.645907 97.9973489,61.1738943 C99.3551969,59.9766808 101.100538,59.3806934 102.904515,59.4927061 C104.711485,59.6057167 106.366004,60.416 107.563665,61.7733742 C110.035337,64.5751882 109.766862,68.8660973 106.964335,71.3381099 L106.964335,71.3381099 C105.715275,72.439277 104.140351,73.0327696 102.489825,73.0327696 Z M105.239704,69.3832516 L105.242199,69.3832516 L105.239704,69.3832516 Z M102.478347,64.6921903 C102.097591,64.6921903 101.7343,64.8289006 101.446113,65.0831121 C100.799376,65.6536533 100.736998,66.6438055 101.307634,67.2904355 C101.584343,67.6037717 101.965848,67.7906258 102.382784,67.8168203 C102.801715,67.8417674 103.202433,67.7050571 103.515571,67.4288922 L103.515571,67.4288922 C104.162058,66.8586004 104.224437,65.8681987 103.653801,65.2215687 C103.377341,64.9082326 102.995587,64.7213784 102.578651,64.6954334 C102.544717,64.6931882 102.511532,64.6921903 102.478347,64.6921903 Z"
                      id="Shape" fill="#000000"></path>
                <path d="M113.299961,63.4992178 C113.155992,63.4992178 113.012023,63.4944778 112.867057,63.4857463 C111.060086,63.3727357 109.405567,62.5624524 108.207906,61.2050782 C107.010246,59.847704 106.413162,58.1051459 106.526441,56.2984736 C106.639719,54.4918013 107.449887,52.837556 108.807485,51.640093 C110.164834,50.44263 111.906682,49.8463932 113.714651,49.9586554 C115.521622,50.0719154 117.17614,50.8819493 118.373801,52.2393235 C119.571462,53.5966977 120.168546,55.3390063 120.055267,57.1456786 C119.941988,58.952351 119.131821,60.6063467 117.774472,61.8038097 L117.774472,61.8038097 C116.525411,62.9057252 114.950737,63.4992178 113.299961,63.4992178 Z M113.288483,55.158389 C112.907727,55.158389 112.544437,55.2950994 112.25625,55.5493108 C111.942862,55.8259746 111.755977,56.2074165 111.729778,56.6245328 C111.703329,57.0413996 111.841559,57.4435476 112.11777,57.7566342 C112.39423,58.0699704 112.775984,58.2568245 113.19292,58.2827696 C113.611852,58.3099619 114.01232,58.1712558 114.324959,57.8948414 L114.325209,57.8948414 C114.638596,57.6186765 114.825481,57.2367357 114.85168,56.8198689 C114.878129,56.4027526 114.739899,56.0008541 114.463688,55.6877674 C114.187228,55.3744313 113.805474,55.1875772 113.388538,55.1613827 C113.355103,55.1593869 113.321669,55.158389 113.288483,55.158389 Z"
                      id="Shape" fill="#000000"></path>
            </g>
        </g>
    </g>
</svg>