<?xml version="1.0" encoding="UTF-8"?>
<svg width="128px" height="124px" viewBox="0 0 128 124" version="1.1" xmlns="http://www.w3.org/2000/svg"
>
    <!-- Generator: Sketch 45.2 (43514) - http://www.bohemiancoding.com/sketch -->
    <title>detective</title>
    <desc>Created with Sketch.</desc>
    <defs></defs>
    <g id="Page-1" stroke="none" stroke-width="1" fill="none" fill-rule="evenodd">
        <g id="50-Professions-and-Job-Icons" transform="translate(-1386.000000, -2286.000000)" fill-rule="nonzero">
            <g id="detective" transform="translate(1386.000000, 2286.000000)">
                <ellipse id="Oval" fill="#0F8EE3" cx="112.3265" cy="81.1416842" rx="13.07175" ry="13.1246721"></ellipse>
                <polygon id="Shape" fill="#D3D1DA"
                         points="41.8195 56.2402753 2.62875 56.2402753 2.62875 110.01787 41.8195 110.01787"></polygon>
                <path d="M53.47125,75.4627854 L53.47125,80.5723887 C53.47125,82.2792713 52.449,83.8189798 50.87975,84.4756275 L34.06775,91.5087368 C30.516,92.9947287 28.2025,97.0335142 28.2025,100.896842 L28.2025,121.253927 L99.7975,121.253927 L99.7975,100.896842 C99.7975,97.0337652 97.48375,92.9944777 93.93225,91.5087368 L77.12025,84.4756275 C75.55075,83.8192308 74.52875,82.2792713 74.52875,80.5723887 L74.52875,75.4627854 L53.47125,75.4627854 Z"
                      id="Shape" fill="#FEBBA0"></path>
                <path d="M74.561,81.0714008 C74.73875,82.5739595 75.706,83.8839919 77.1205,84.4758785 L93.9325,91.5089879 C97.484,92.9947287 99.79775,97.0337652 99.79775,100.897093 L99.79775,121.254178 L28.2025,121.254178 L28.2025,100.897093 C28.2025,97.0340162 30.516,92.9949798 34.06775,91.5089879 L50.87975,84.4758785 C52.274,83.8925263 53.2345,82.6118623 53.432,81.136664 L64.013,86.1054494 L74.561,81.0714008 Z"
                      id="Shape" fill="#102F51"></path>
                <path d="M87.5035,45.4239109 L87.5275,37.7815951 C87.56825,24.7703806 77.09625,14.1889636 64.13725,14.1480486 C51.1785,14.1071336 40.63975,24.6215304 40.599,37.632996 L40.507,37.6327449 L40.483,45.2750607 C37.2515,45.2647692 34.6235,47.8868421 34.61325,51.1316761 C34.603,54.3762591 37.2145,57.0148988 40.44625,57.0251903 L40.4325,61.4113765 C40.7025,65.1110445 42.4885,68.4100972 45.20325,70.2224049 L59.32275,78.3860729 C62.157,80.2784534 65.61075,80.289498 68.45675,78.4149393 L82.58475,70.3406316 C85.31075,68.5456437 87.15925,65.2581377 87.45275,61.5602267 L87.4665,57.1740405 C90.698,57.184332 93.326,54.5622591 93.33625,51.3174251 C93.3465,48.0728421 90.735,45.4342024 87.5035,45.4239109 Z"
                      id="Shape" fill="#FEBBA0"></path>
                <path d="M87.51025,59.3425344 L87.51025,61.4856761 C87.22875,65.1845911 85.39025,68.4778704 82.66975,70.2816437 L68.56725,78.4008826 C65.727,80.2842267 62.27325,80.2842267 59.433,78.4008826 L45.288,70.2816437 C42.56775,68.4778704 40.7715,65.1845911 40.4895,61.4856761 L40.4895,59.4346559 L30.931,69.0318543 L64.04575,96.9925992 L97.16075,69.0321053 L87.51025,59.3425344 Z"
                      id="Shape" fill="#102F51"></path>
                <path d="M83.649,19.7315628 C99.1265,19.5819595 109.827,19.923085 109.827,24.3157976 C109.827,30.3943077 89.31625,41.9345911 64.01275,41.9345911 C38.70925,41.9345911 18.1985,30.3940567 18.1985,24.3160486 C18.1985,19.9283563 28.88075,19.5824615 44.3375,19.7318138 L83.64925,19.7318138 L83.64925,19.7315628 L83.649,19.7315628 Z"
                      id="Shape" fill="#102F51"></path>
                <path d="M89.955,25.0946883 C81.546,27.982834 72.77775,29.428664 64.01275,29.428664 C59.983,29.428664 55.95025,29.1216761 51.9555,28.5112146 C47.261,27.7930688 42.61375,26.6542267 38.07075,25.0946883 L40.673,16.1169879 L43.49925,6.36441296 C44.3405,3.46346559 47.529,1.95789474 50.29225,3.15974089 L55.65475,5.4911417 L63.988,9.11952227 L64.03525,9.11952227 L77.73425,3.15974089 C80.49725,1.95764372 83.6825,3.46346559 84.52375,6.36441296 L87.353,16.1169879 L89.955,25.0946883 Z"
                      id="Shape" fill="#102F51"></path>
                <path d="M30.93125,81.1359109 L11.09725,81.1359109 C9.65475,81.1359109 8.485,79.9616761 8.485,78.513085 C8.485,77.0644939 9.65475,75.8902591 11.09725,75.8902591 L30.93125,75.8902591 C32.37375,75.8902591 33.5435,77.0644939 33.5435,78.513085 C33.5435,79.9616761 32.374,81.1359109 30.93125,81.1359109 Z"
                      id="Shape" fill="#000000"></path>
                <path d="M27.2195,90.8342672 L27.18,90.8342672 C25.7375,90.8342672 24.56775,89.6600324 24.56775,88.2114413 C24.56775,86.7628502 25.7375,85.5886154 27.18,85.5886154 L27.2195,85.5886154 C28.662,85.5886154 29.83175,86.7628502 29.83175,88.2114413 C29.83175,89.6600324 28.66225,90.8342672 27.2195,90.8342672 Z"
                      id="Shape" fill="#000000"></path>
                <path d="M18.64675,90.8345182 L11.02375,90.8345182 C9.58125,90.8345182 8.4115,89.6602834 8.4115,88.2116923 C8.4115,86.7631012 9.58125,85.5888664 11.02375,85.5888664 L18.64675,85.5888664 C20.08925,85.5888664 21.259,86.7631012 21.259,88.2116923 C21.259,89.6602834 20.08925,90.8345182 18.64675,90.8345182 Z"
                      id="Shape" fill="#000000"></path>
                <path d="M74.22025,102.193069 L74.181,102.193069 C72.7385,102.193069 71.56875,101.018834 71.56875,99.5702429 C71.56875,98.1216518 72.7385,96.947417 74.181,96.947417 L74.22025,96.947417 C75.66275,96.947417 76.8325,98.1216518 76.8325,99.5702429 C76.8325,101.018834 75.6625,102.193069 74.22025,102.193069 Z"
                      id="Shape" fill="#000000"></path>
                <path d="M74.22025,112.598526 L74.181,112.598526 C72.7385,112.598526 71.56875,111.424291 71.56875,109.9757 C71.56875,108.527109 72.7385,107.352874 74.181,107.352874 L74.22025,107.352874 C75.66275,107.352874 76.8325,108.527109 76.8325,109.9757 C76.8325,111.424291 75.6625,112.598526 74.22025,112.598526 Z"
                      id="Shape" fill="#000000"></path>
                <path d="M2.6465,123.876753 L2.61225,123.876753 C1.16975,123.876753 0,122.702518 0,121.253927 C0,119.805336 1.16975,118.631101 2.61225,118.631101 L2.6465,118.631101 C4.089,118.631101 5.25875,119.805336 5.25875,121.253927 C5.25875,122.702518 4.089,123.876753 2.6465,123.876753 Z"
                      id="Shape" fill="#000000"></path>
                <path d="M125.38775,123.876753 L125.3535,123.876753 C123.911,123.876753 122.74125,122.702518 122.74125,121.253927 C122.74125,119.805336 123.911,118.631101 125.3535,118.631101 L125.38775,118.631101 C126.83025,118.631101 128,119.805336 128,121.253927 C128,122.702518 126.83025,123.876753 125.38775,123.876753 Z"
                      id="Shape" fill="#000000"></path>
                <path d="M73.52675,54.4651174 C71.91675,54.4651174 70.60675,53.1500648 70.60675,51.5335466 C70.60675,49.9167773 71.91675,48.6017247 73.52675,48.6017247 C75.13675,48.6017247 76.4465,49.9167773 76.4465,51.5335466 C76.44625,53.1500648 75.13675,54.4651174 73.52675,54.4651174 Z"
                      id="Shape" fill="#000000"></path>
                <path d="M54.47325,54.4651174 C52.86325,54.4651174 51.5535,53.1500648 51.5535,51.5335466 C51.5535,49.9167773 52.86325,48.6017247 54.47325,48.6017247 C56.08325,48.6017247 57.39325,49.9167773 57.39325,51.5335466 C57.393,53.1500648 56.083,54.4651174 54.47325,54.4651174 Z"
                      id="Shape" fill="#000000"></path>
                <path d="M64.011,68.7677895 C61.16325,68.7677895 58.846,66.4414089 58.846,63.5818785 C58.846,62.1332874 60.01575,60.9590526 61.45825,60.9590526 L66.56375,60.9590526 C68.00625,60.9590526 69.176,62.1332874 69.176,63.5818785 C69.17575,66.4416599 66.85875,68.7677895 64.011,68.7677895 Z"
                      id="Shape" fill="#000000"></path>
                <path d="M127.77125,81.1419352 C127.77125,72.4591741 120.73575,65.3949393 112.08775,65.3949393 C103.44025,65.3949393 96.4045,72.4589231 96.4045,81.1419352 C96.4045,89.0149312 102.189,95.5568097 109.715,96.7084534 L109.715,111.375093 C109.715,112.823684 110.88475,113.997919 112.32725,113.997919 C113.76975,113.997919 114.9395,112.823684 114.9395,111.375093 L114.9395,96.6231093 C122.22975,95.2716599 127.77125,88.846251 127.77125,81.1419352 Z M112.08775,91.6427773 C106.321,91.6427773 101.629,86.9322834 101.629,81.1416842 C101.629,75.351085 106.32075,70.6403401 112.08775,70.6403401 C117.85475,70.6403401 122.54675,75.351085 122.54675,81.1416842 C122.54675,86.9322834 117.85475,91.6427773 112.08775,91.6427773 Z"
                      id="Shape" fill="#000000"></path>
                <path d="M112.32725,83.7647611 C110.88475,83.7647611 109.715,82.5905263 109.715,81.1419352 L109.715,75.4818623 C109.715,74.0332713 110.88475,72.8590364 112.32725,72.8590364 C113.76975,72.8590364 114.9395,74.0332713 114.9395,75.4818623 L114.9395,81.1419352 C114.9395,82.5905263 113.76975,83.7647611 112.32725,83.7647611 Z"
                      id="Shape" fill="#000000"></path>
                <path d="M112.32725,90.1836437 C110.88475,90.1836437 109.715,89.0094089 109.715,87.5608178 L109.715,87.5096113 C109.715,86.0610202 110.88475,84.8867854 112.32725,84.8867854 C113.76975,84.8867854 114.9395,86.0610202 114.9395,87.5096113 L114.9395,87.5608178 C114.9395,89.0094089 113.76975,90.1836437 112.32725,90.1836437 Z"
                      id="Shape" fill="#000000"></path>
                <path d="M92.3975,112.598526 L82.597,112.598526 C81.1545,112.598526 79.98475,111.424291 79.98475,109.9757 C79.98475,108.527109 81.1545,107.352874 82.597,107.352874 L92.3975,107.352874 C93.84,107.352874 95.00975,108.527109 95.00975,109.9757 C95.00975,111.424291 93.84,112.598526 92.3975,112.598526 Z"
                      id="Shape" fill="#000000"></path>
                <path d="M116.91525,118.631101 L102.40975,118.631101 L102.40975,100.896842 C102.40975,95.7842267 99.33675,90.9283968 94.93725,89.0874737 L83.255,84.2002672 L98.842,71.0389474 C99.402,70.5660405 99.739,69.8787692 99.77075,69.1445587 C99.802,68.4103482 99.5255,67.6964696 99.008,67.1768745 L90.879,59.0149636 C93.8735,57.7046802 95.974,54.7078462 95.974,51.2240486 C95.974,47.4533441 93.515,44.24817 90.12275,43.1402024 L90.12275,40.5540243 C93.15,39.5926478 95.6235,38.6124453 97.457,37.8064453 C100.97175,36.2609636 112.4395,30.7213765 112.4395,24.3152955 C112.4395,19.3886802 106.42425,18.3145992 104.4475,17.9614251 C101.27275,17.3946397 96.997,17.1265587 90.35375,17.0868988 L87.0315,5.63070445 C86.42075,3.52446154 84.9365,1.78168421 82.95925,0.848421053 C80.982,-0.0845910931 78.699,-0.119481781 76.69525,0.752534413 L64.0115,6.27078543 L51.33,0.752785425 C49.32525,-0.119230769 47.0415,-0.0835870445 45.06375,0.848923077 C43.086,1.78218623 41.60125,3.52496356 40.9905,5.63120648 L37.67025,17.0868988 C31.0015,17.1268097 26.71775,17.3966478 23.53625,17.9694575 C18.26075,18.9195385 15.586,21.0543968 15.586,24.3152955 C15.586,30.7218785 27.05375,36.2614656 30.5685,37.8064453 C32.39675,38.6101862 34.86125,39.5873765 37.87725,40.5459919 L37.87725,43.1399514 C34.485,44.247919 32.026,47.4528421 32.026,51.2237976 C32.026,52.0551498 32.15175,52.8566316 32.3745,53.6166964 L31.374,53.6166964 L31.374,53.3563968 C31.374,51.9078057 30.20425,50.7335709 28.76175,50.7335709 C27.31925,50.7335709 26.1495,51.9078057 26.1495,53.3563968 L26.1495,53.6166964 L21.5675,53.6166964 L21.5675,53.3563968 C21.5675,51.9078057 20.39775,50.7335709 18.95525,50.7335709 C17.51275,50.7335709 16.343,51.9078057 16.343,53.3563968 L16.343,53.6166964 L11.7605,53.6166964 L11.7605,53.3757247 C11.7605,51.9271336 10.59075,50.7528988 9.14825,50.7528988 C7.70575,50.7528988 6.536,51.9271336 6.536,53.3757247 L6.536,53.6166964 L2.6285,53.6166964 C1.186,53.6166964 0.01625,54.7909312 0.01625,56.2395223 L0.01625,110.017117 C0.01625,111.465709 1.186,112.639943 2.6285,112.639943 L25.58975,112.639943 L25.58975,118.630348 L11.10975,118.630348 C9.66725,118.630348 8.4975,119.804583 8.4975,121.253174 C8.4975,122.701765 9.66725,123.876 11.10975,123.876 L116.91475,123.876 C118.35725,123.876 119.527,122.701765 119.527,121.253174 C119.5275,119.804834 118.358,118.631101 116.91525,118.631101 Z M46.007,7.09787045 C46.20125,6.42766802 46.65525,5.89476923 47.286,5.59731984 C47.916,5.30012146 48.61475,5.28882591 49.25375,5.56694737 L62.94825,11.5259757 C63.27625,11.6688016 63.62975,11.7425992 63.98775,11.7425992 L64.035,11.7425992 C64.392,11.7425992 64.74575,11.6688016 65.07375,11.5264777 L78.7725,5.56669636 C79.4105,5.28907692 80.10825,5.29961943 80.73725,5.59681781 C81.367,5.89401619 81.82075,6.42691498 82.01575,7.09787045 L86.73925,23.3852955 C79.368,25.6562024 71.735,26.8060891 64.01325,26.8060891 C60.12675,26.8060891 56.20275,26.5073846 52.34925,25.9187611 C48.61625,25.3477085 44.906,24.4975304 41.2875,23.3845425 L46.007,7.09787045 Z M32.6645,33.0020729 C23.8305,29.1181619 20.94475,25.419498 20.81525,24.3843239 C21.0145,24.1825101 21.997,23.4279676 25.8705,22.9148988 C28.36775,22.5843158 31.6095,22.403085 36.14625,22.3471093 L35.5625,24.3617328 C35.1725,25.7071579 35.905,27.1231174 37.2255,27.5764453 C41.879,29.1736356 46.7025,30.3606721 51.5625,31.10417 C55.6755,31.7327045 59.86425,32.0512389 64.013,32.0512389 C73.1425,32.0512389 82.155,30.545668 90.80075,27.5761943 C92.1215,27.1226154 92.8535,25.7069069 92.4635,24.3617328 L91.87925,22.3468583 C96.39525,22.402834 99.626,22.5823077 102.11625,22.9093765 C106.024,23.4224453 107.011,24.1820081 107.21075,24.3838219 C107.08325,25.4167368 104.19875,29.1164049 95.36125,33.0018219 C90.001,35.3583239 78.801,39.3117652 64.013,39.3117652 C49.225,39.3117652 38.0245,35.3585749 32.6645,33.0020729 Z M40.48975,47.9726883 C41.93225,47.9726883 43.102,46.7984534 43.102,45.3498623 L43.102,42.0194332 C48.8595,43.4439271 55.93825,44.557919 64.01275,44.557919 C72.07525,44.557919 79.14525,43.4474413 84.898,42.0259595 L84.898,45.3501134 C84.898,46.7987045 86.06775,47.9729393 87.51025,47.9729393 C89.29625,47.9729393 90.74925,49.4320729 90.74925,51.2250526 C90.74925,53.0180324 89.296,54.477166 87.51025,54.477166 C86.06775,54.477166 84.898,55.6514008 84.898,57.0999919 L84.898,61.380251 C84.66075,64.1539352 83.28725,66.6956842 81.29275,68.0514008 L67.26775,76.1257085 C67.22025,76.1533198 67.1735,76.1821862 67.12775,76.2125587 C65.169,77.5110445 62.8315,77.5110445 60.87275,76.2125587 C60.826,76.1816842 60.7785,76.1520648 60.7295,76.1242024 L46.66325,68.0506478 C44.66725,66.6936761 43.342,64.211919 43.10175,61.380753 L43.10175,57.0999919 C43.10175,55.6514008 41.932,54.477166 40.4895,54.477166 C38.7035,54.477166 37.2505,53.0180324 37.2505,51.2250526 C37.25075,49.4315709 38.70375,47.9726883 40.48975,47.9726883 Z M26.84725,95.2879757 L10.934,95.2879757 C9.4915,95.2879757 8.32175,96.4622105 8.32175,97.9108016 C8.32175,99.3593927 9.4915,100.533628 10.934,100.533628 L25.59675,100.533628 C25.59325,100.654615 25.59,100.775352 25.59,100.896842 L25.59,107.394794 L5.241,107.394794 L5.241,58.8631012 L6.53625,58.8631012 L6.53625,59.1015628 C6.53625,60.5501538 7.706,61.7243887 9.1485,61.7243887 C10.591,61.7243887 11.76075,60.5501538 11.76075,59.1015628 L11.76075,58.8631012 L16.343,58.8631012 L16.343,59.0824858 C16.343,60.5310769 17.51275,61.7053117 18.95525,61.7053117 C20.39775,61.7053117 21.5675,60.5310769 21.5675,59.0824858 L21.5675,58.8631012 L26.15,58.8631012 L26.15,59.0824858 C26.15,60.5310769 27.31975,61.7053117 28.76225,61.7053117 C30.20475,61.7053117 31.3745,60.5310769 31.3745,59.0824858 L31.3745,58.8631012 L36.793,58.8631012 C36.922,58.9263563 37.0515,58.9878543 37.184,59.044583 L30.06725,66.1906478 L11.09725,66.1906478 C9.65475,66.1906478 8.485,67.3648826 8.485,68.8134737 C8.485,70.2620648 9.65475,71.4362996 11.09725,71.4362996 L29.72,71.4362996 L44.8065,84.174915 L33.063,89.0879757 C30.3495,90.2230526 28.142,92.5062591 26.84725,95.2879757 Z M61.4005,118.631101 L30.81475,118.631101 L30.81475,100.896842 C30.81475,97.9406721 32.64525,94.9453441 35.0725,93.929749 L49.30725,87.9747368 L61.40075,98.1861619 L61.40075,118.631101 L61.4005,118.631101 Z M34.792,68.8649312 L38.53425,65.1075304 C39.4805,68.1809231 41.3465,70.8117814 43.84825,72.4704696 C43.895,72.5015951 43.9425,72.5309636 43.9915,72.5588259 L58.06825,80.6386559 C59.902,81.8344777 61.95075,82.4321377 64.00025,82.4321377 C66.05,82.4321377 68.09975,81.8339757 69.93375,80.6376518 L83.96925,72.5570688 C84.01675,72.5294575 84.0635,72.5005911 84.10925,72.4702186 C86.64875,70.7864291 88.5385,68.1279595 89.48375,65.0334818 L93.2995,68.8646802 L64.046,93.5657814 L34.792,68.8649312 Z M97.18525,118.631101 L66.625,118.631101 L66.625,98.2421377 L78.7545,88.0005911 L92.928,93.93 C95.355,94.9453441 97.1855,97.9406721 97.1855,100.897093 L97.1855,118.631352 L97.18525,118.631352 L97.18525,118.631101 Z"
                      id="Shape" fill="#000000"></path>
            </g>
        </g>
    </g>
</svg>