<?xml version="1.0" encoding="UTF-8"?>
<svg width="128px" height="118px" viewBox="0 0 128 118" version="1.1" xmlns="http://www.w3.org/2000/svg"
>
    <!-- Generator: Sketch 45.2 (43514) - http://www.bohemiancoding.com/sketch -->
    <title>athlete</title>
    <desc>Created with Sketch.</desc>
    <defs></defs>
    <g id="Page-1" stroke="none" stroke-width="1" fill="none" fill-rule="evenodd">
        <g id="50-Professions-and-Job-Icons" transform="translate(-1086.000000, -2891.000000)" fill-rule="nonzero">
            <g id="athlete" transform="translate(1086.000000, 2891.000000)">
                <circle id="Oval" fill="#C8624A" cx="106.833" cy="96.6555" r="18.55475"></circle>
                <rect id="Rectangle-path" fill="#ECEBED" x="15.5715" y="53.8225" width="11.15625"
                      height="30.28625"></rect>
                <rect id="Rectangle-path" fill="#ECEBED" x="6.94075" y="57.22375" width="8.63075"
                      height="23.484"></rect>
                <path d="M53.47125,69.60425 L53.47125,74.693 C53.47125,76.393 52.449,77.9265 50.87975,78.5805 L34.06775,85.5855 C30.516,87.0655 28.2025,91.088 28.2025,94.93575 L28.2025,115.21075 L99.7975,115.21075 L99.7975,94.93575 C99.7975,91.08825 97.48375,87.06525 93.93225,85.5855 L77.12025,78.5805 C75.55075,77.92675 74.52875,76.393 74.52875,74.693 L74.52875,69.60425 L53.47125,69.60425 L53.47125,69.60425 Z"
                      id="Shape" fill="#FEBBA0"></path>
                <path d="M88.27825,115.2105 L88.27825,91.20325 C88.27825,88.583 89.167,86.16075 90.65525,84.22 L77.1205,78.58075 C75.551,77.927 74.529,76.39325 74.529,74.69325 L74.5055,84.077 C74.5055,89.848 69.78375,94.5695 64.013,94.5695 L64.013,94.5695 C58.242,94.5695 53.5205,89.84775 53.5205,84.077 L53.47175,74.69325 C53.47175,76.39325 52.4495,77.92675 50.88025,78.58075 L37.3455,84.22025 C38.83375,86.1615 39.7225,88.58325 39.7225,91.2035 L39.7225,115.21075 L88.27925,115.21075 L88.27925,115.2105 L88.27825,115.2105 Z"
                      id="Shape" fill="#1990E0"></path>
                <rect id="Rectangle-path" fill="#FFFFFF" x="50.364" y="100.3205" width="27.36325"
                      height="14.88975"></rect>
                <path d="M74.52875,71.0635 L74.52875,84.0765 C74.52875,89.8475 69.7835,94.569 64.01275,94.569 L64.01275,94.569 C58.24175,94.569 53.47125,89.84725 53.47125,84.0765 L53.47125,71.0635"
                      id="Shape" fill="#FEBBA0"></path>
                <path d="M87.51025,39.6125 L87.51025,32.001 C87.51025,19.04225 77.00475,8.53675 64.046,8.53675 C51.087,8.53675 40.58175,19.04225 40.58175,32.001 L40.48975,32.001 L40.48975,39.6125 C37.25825,39.6125 34.63825,42.23225 34.63825,45.464 C34.63825,48.69575 37.258,51.3155 40.48975,51.3155 L40.48975,55.684 C40.77125,59.368 42.56775,62.648 45.28825,64.4445 L59.43325,72.531 C62.2735,74.40675 65.72725,74.40675 68.5675,72.531 L82.67025,64.4445 C85.3905,62.648 87.22875,59.36825 87.51075,55.684 L87.51075,51.3155 C90.74225,51.3155 93.36225,48.69575 93.36225,45.464 C93.36175,42.232 90.74175,39.6125 87.51025,39.6125 Z"
                      id="Shape" fill="#FEBBA0"></path>
                <polygon id="Shape" fill="#FF5957"
                         points="37.82975 32.8595 90.19575 32.8595 87.59025 17.83375 40.46075 17.83375"></polygon>
                <path d="M85.62725,17.83375 C82.3765,9.0505 73.926,2.78925 64.0125,2.78925 C54.099,2.78925 45.64875,9.05025 42.39775,17.83375 L85.62725,17.83375 Z"
                      id="Shape" fill="#703E41"></path>
                <circle id="Oval" fill="#FFA036" cx="112.324" cy="25.91075" r="13.06125"></circle>
                <path d="M2.6465,117.82275 L2.61225,117.82275 C1.1695,117.82275 0,116.65325 0,115.2105 C0,113.76775 1.1695,112.59825 2.61225,112.59825 L2.6465,112.59825 C4.08925,112.59825 5.25875,113.76775 5.25875,115.2105 C5.25875,116.65325 4.08925,117.82275 2.6465,117.82275 Z"
                      id="Shape" fill="#000000"></path>
                <path d="M125.38775,117.82275 L125.3535,117.82275 C123.91075,117.82275 122.74125,116.65325 122.74125,115.2105 C122.74125,113.76775 123.91075,112.59825 125.3535,112.59825 L125.38775,112.59825 C126.8305,112.59825 128,113.76775 128,115.2105 C128,116.65325 126.8305,117.82275 125.38775,117.82275 Z"
                      id="Shape" fill="#000000"></path>
                <path d="M73.5265,48.691 C71.91625,48.691 70.6065,47.38125 70.6065,45.77125 C70.6065,44.161 71.91625,42.85125 73.5265,42.85125 C75.13675,42.85125 76.4465,44.161 76.4465,45.77125 C76.4465,47.38125 75.13675,48.691 73.5265,48.691 Z"
                      id="Shape" fill="#000000"></path>
                <path d="M54.4735,48.691 C52.86325,48.691 51.5535,47.38125 51.5535,45.77125 C51.5535,44.161 52.86325,42.85125 54.4735,42.85125 C56.08375,42.85125 57.3935,44.161 57.3935,45.77125 C57.393,47.38125 56.08325,48.691 54.4735,48.691 Z"
                      id="Shape" fill="#000000"></path>
                <path d="M64.011,62.9365 C61.16325,62.9365 58.846,60.6195 58.846,57.7715 C58.846,56.32875 60.0155,55.15925 61.45825,55.15925 L66.56375,55.15925 C68.0065,55.15925 69.176,56.32875 69.176,57.7715 C69.17575,60.61925 66.85875,62.9365 64.011,62.9365 Z"
                      id="Shape" fill="#000000"></path>
                <path d="M112.32425,28.52275 C110.8815,28.52275 109.712,27.35325 109.712,25.9105 L109.712,23.25475 C109.712,21.812 110.8815,20.6425 112.32425,20.6425 C113.767,20.6425 114.9365,21.812 114.9365,23.25475 L114.9365,25.9105 C114.9365,27.35325 113.767,28.52275 112.32425,28.52275 Z"
                      id="Shape" fill="#000000"></path>
                <path d="M114.9365,10.459 L114.9365,6.585 C114.9365,5.14225 113.767,3.97275 112.32425,3.97275 C110.8815,3.97275 109.712,5.14225 109.712,6.585 L109.712,10.45875 C109.0955,10.56275 108.4915,10.7025 107.90175,10.8765 L106.38425,9.359 C105.36425,8.339 103.71,8.339 102.69,9.359 C101.67,10.379 101.67,12.03325 102.69,13.05325 L102.97525,13.3385 C99.13975,16.1985 96.65075,20.769 96.65075,25.91025 C96.65075,34.5525 103.682,41.58375 112.32425,41.58375 C120.9665,41.58375 127.99775,34.55275 127.99775,25.91025 C127.99775,18.1585 122.33925,11.7065 114.9365,10.459 Z M112.32425,36.3595 C106.56275,36.3595 101.87525,31.672 101.87525,25.9105 C101.87525,20.149 106.56275,15.4615 112.32425,15.4615 C118.08575,15.4615 122.77325,20.149 122.77325,25.9105 C122.77325,31.672 118.08575,36.3595 112.32425,36.3595 Z"
                      id="Shape" fill="#000000"></path>
                <path d="M122.5235,82.46425 C122.44175,82.36225 122.3545,82.26375 122.2555,82.17275 C122.2445,82.1625 122.2325,82.1545 122.2215,82.1445 C118.3595,78.0515 112.8915,75.489 106.833,75.489 C101.12275,75.489 95.6945,77.78625 91.723,81.83525 L78.125,76.1695 C77.52725,75.9205 77.141,75.34125 77.141,74.69325 L77.141,71.06375 L77.141,70.6255 L83.96925,66.71025 C84.01675,66.683 84.0635,66.654 84.1095,66.62375 C87.5285,64.366 89.77375,60.3505 90.115,55.8825 C90.12025,55.8165 90.1225,55.74975 90.1225,55.6835 L90.1225,53.51475 C93.51475,52.41125 95.97375,49.21925 95.97375,45.4635 C95.97375,41.70775 93.51475,38.51575 90.1225,37.41225 L90.1225,35.4715 L90.196,35.4715 C90.96675,35.4715 91.69825,35.13125 92.19475,34.54125 C92.691,33.9515 92.9015,33.1725 92.77,32.413 L90.16425,17.3875 C89.94725,16.13575 88.861,15.2215 87.5905,15.2215 L87.372,15.2215 C83.2435,6.15275 74.0795,0.17725 64.01275,0.17725 C53.946,0.17725 44.78175,6.15275 40.6535,15.2215 L40.46075,15.2215 C39.192,15.2215 38.1065,16.1335 37.88775,17.38325 L35.25675,32.40925 C35.12375,33.16925 35.33325,33.9495 35.8295,34.54 C36.32575,35.13075 37.058,35.47175 37.82975,35.47175 L37.8775,35.47175 L37.8775,37.4125 C34.48525,38.516 32.02625,41.708 32.02625,45.46375 C32.02625,49.21925 34.48525,52.4115 37.8775,53.515 L37.8775,55.68375 C37.8775,55.75 37.88,55.81675 37.885,55.88275 C38.21475,60.19725 40.29225,64.07075 43.4665,66.35375 L29.3405,66.35375 L29.3405,53.8225 C29.3405,52.37975 28.171,51.21025 26.72825,51.21025 L15.57175,51.21025 C14.129,51.21025 12.9595,52.37975 12.9595,53.8225 L12.9595,54.61175 L6.94075,54.61175 C5.498,54.61175 4.3285,55.78125 4.3285,57.224 L4.3285,66.35325 L2.67675,66.35325 C1.234,66.35325 0.0645,67.52275 0.0645,68.9655 C0.0645,70.40825 1.234,71.57775 2.67675,71.57775 L4.3285,71.57775 L4.3285,80.707 C4.3285,82.14975 5.498,83.31925 6.94075,83.31925 L12.9595,83.31925 L12.9595,84.1085 C12.9595,85.55125 14.129,86.72075 15.57175,86.72075 L26.7285,86.72075 C28.17125,86.72075 29.34075,85.55125 29.34075,84.1085 L29.34075,71.578 L50.859,71.578 L50.859,74.693 C50.859,75.3405 50.47275,75.92 49.875,76.16925 L33.06275,83.17425 C28.663,85.00775 25.59025,89.844 25.59025,94.9355 L25.59025,112.59825 L11.0975,112.59825 C9.65475,112.59825 8.48525,113.76775 8.48525,115.2105 C8.48525,116.65325 9.65475,117.82275 11.0975,117.82275 L116.9025,117.82275 C118.34525,117.82275 119.51475,116.65325 119.51475,115.2105 C119.51475,114.71675 119.37525,114.25675 119.13725,113.86275 C120.2545,113.0615 121.28975,112.153 122.231,111.155 C122.24475,111.143 122.2595,111.1325 122.273,111.12 C122.405,110.999 122.52125,110.86775 122.6225,110.72825 C125.9635,106.98625 128,102.056 128,96.65575 C128,91.2005 125.92475,86.2215 122.5235,82.46425 Z M12.9595,78.095 L9.553,78.095 L9.553,59.8365 L12.95975,59.8365 L12.95975,78.095 L12.9595,78.095 Z M24.11625,81.4965 L18.184,81.4965 L18.184,80.70725 L18.184,57.22425 L18.184,56.435 L24.11625,56.435 L24.11625,81.4965 Z M42.65525,20.446 L85.392,20.446 L87.0915,30.2475 L40.939,30.2475 L42.65525,20.446 Z M64.01275,5.40175 C71.2005,5.40175 77.812,9.226 81.472,15.2215 L46.55325,15.2215 C50.2135,9.226 56.825,5.40175 64.01275,5.40175 Z M46.6635,62.2215 C44.66725,60.87 43.34225,58.39825 43.102,55.5785 L43.102,51.315 C43.102,49.87225 41.9325,48.70275 40.48975,48.70275 C38.70375,48.70275 37.25075,47.2495 37.25075,45.46375 C37.25075,43.678 38.704,42.22475 40.48975,42.22475 C41.9325,42.22475 43.102,41.05525 43.102,39.6125 L43.102,35.47175 L84.898,35.47175 L84.898,39.6125 C84.898,41.05525 86.0675,42.22475 87.51025,42.22475 C89.29625,42.22475 90.74925,43.678 90.74925,45.46375 C90.74925,47.2495 89.296,48.70275 87.51025,48.70275 C86.0675,48.70275 84.898,49.87225 84.898,51.315 L84.898,55.578 C84.66075,58.3405 83.28725,60.872 81.29275,62.22225 L67.26775,70.264 C67.22,70.2915 67.1735,70.32025 67.1275,70.3505 C65.1695,71.64375 62.83125,71.644 60.8725,70.3505 C60.82575,70.3195 60.77825,70.29025 60.72925,70.2625 L46.6635,62.2215 Z M71.91675,73.621 L71.91675,84.0765 C71.91675,88.42175 68.37125,91.95675 64.013,91.95675 C59.641,91.95675 56.08375,88.4215 56.08375,84.0765 L56.08375,73.6245 L58.0685,74.75925 C59.902,75.95025 61.951,76.5455 64.0005,76.5455 C66.05025,76.5455 68.1,75.94975 69.93375,74.75825 L71.91675,73.621 Z M37.1095,112.59825 L30.81475,112.59825 L30.81475,94.9355 C30.81475,91.99125 32.64525,89.008 35.0725,87.9965 L36.29,87.48925 C36.8285,88.64625 37.10925,89.9035 37.10925,91.20325 L37.10925,112.598 L37.1095,112.598 L37.1095,112.59825 Z M75.116,112.59825 L52.97625,112.59825 L52.97625,102.933 L75.116,102.933 L75.116,112.59825 Z M85.666,91.2035 L85.666,112.5985 L80.34,112.5985 L80.34,100.321 C80.34,98.87825 79.1705,97.70875 77.72775,97.70875 L50.36375,97.70875 C48.921,97.70875 47.7515,98.87825 47.7515,100.321 L47.7515,112.5985 L42.334,112.5985 L42.334,91.2035 C42.334,89.2025 41.91725,87.2665 41.11675,85.4785 L50.859,81.41925 L50.859,84.07675 C50.859,91.30275 56.75975,97.1815 64.01275,97.1815 C71.25175,97.1815 77.141,91.30275 77.141,84.07675 L77.141,81.41925 L86.88325,85.4785 C86.08275,87.2665 85.666,89.2025 85.666,91.2035 Z M97.1855,104.52325 C97.18525,104.533 97.1855,104.54275 97.1855,104.5525 L97.1855,112.5985 L90.8905,112.5985 L90.8905,91.2035 C90.8905,89.90375 91.17125,88.64675 91.71,87.4895 L92.92775,87.99675 C95.355,89.00825 97.1855,91.99125 97.1855,94.93575 L97.1855,104.52325 Z M104.22075,112.3815 C103.6095,112.28025 103.005,112.14525 102.40975,111.97375 L102.40975,106.41675 C103.00475,106.24475 103.609,106.10975 104.22075,106.009 L104.22075,112.3815 L104.22075,112.3815 Z M104.22075,100.7335 C103.61175,100.8085 103.008,100.90875 102.40975,101.03625 L102.40975,94.9355 C102.40975,93.99325 102.29875,93.06125 102.09925,92.15375 C102.798,92.315 103.506,92.4405 104.22075,92.53025 L104.22075,100.7335 L104.22075,100.7335 L104.22075,100.7335 Z M104.22075,87.2555 C101.602,86.8175 99.1245,85.729 97.02825,84.0955 C99.124,82.4585 101.59375,81.36775 104.22075,80.93075 L104.22075,87.2555 Z M109.44525,80.93075 C112.126,81.3745 114.5815,82.48975 116.63575,84.097 C114.53975,85.72975 112.063,86.8175 109.44525,87.2555 L109.44525,80.93075 Z M109.44525,112.38075 L109.44525,106.013 C112.075,106.453 114.56175,107.548 116.664,109.1925 C114.6035,110.8115 112.13825,111.93475 109.44525,112.38075 Z M120.1975,105.33175 C117.119,102.82775 113.3845,101.2315 109.44525,100.738 L109.44525,92.53025 C113.37625,92.03725 117.10375,90.4465 120.179,87.95075 C121.81825,90.45525 122.77525,93.445 122.77525,96.6555 C122.7755,99.85425 121.8255,102.833 120.1975,105.33175 Z"
                      id="Shape" fill="#000000"></path>
            </g>
        </g>
    </g>
</svg>