<?xml version="1.0" encoding="UTF-8"?>
<svg width="128px" height="126px" viewBox="0 0 128 126" version="1.1" xmlns="http://www.w3.org/2000/svg"
>
    <!-- Generator: Sketch 45.2 (43514) - http://www.bohemiancoding.com/sketch -->
    <title>politician</title>
    <desc>Created with Sketch.</desc>
    <defs></defs>
    <g id="Page-1" stroke="none" stroke-width="1" fill="none" fill-rule="evenodd">
        <g id="50-Professions-and-Job-Icons" transform="translate(-186.000000, -1087.000000)" fill-rule="nonzero">
            <g id="politician" transform="translate(186.000000, 1087.000000)">
                <rect id="Rectangle-path" fill="#27B5F7" x="99.78825" y="109.160677" width="25.587"
                      height="14.1383546"></rect>
                <rect id="Rectangle-path" fill="#FFFFFF" x="2.625" y="53.2801793" width="36.12375"
                      height="47.2030637"></rect>
                <path d="M53.466,77.5148486 L53.466,82.6233705 C53.466,84.3301434 52.444,85.869251 50.87475,86.5261076 L34.0645,93.5582629 C30.513,95.0441594 28.19975,99.0821833 28.19975,102.944761 L28.19975,123.29853 L99.78775,123.29853 L99.78775,102.944761 C99.78775,99.0821833 97.47425,95.0436574 93.923,93.5582629 L77.11275,86.5261076 C75.5435,85.869753 74.5215,84.3301434 74.5215,82.6233705 L74.5215,77.5148486 L53.466,77.5148486 Z"
                      id="Shape" fill="#FEBBA0"></path>
                <path d="M93.923,93.5582629 L77.11275,86.5261076 C76.6155,86.3180319 76.1735,86.0208526 75.80125,85.6581633 L64.018,91.9576614 L52.21,85.6333147 C51.8325,86.0070478 51.383,86.3135139 50.87475,86.5263586 L34.0645,93.5585139 C30.513,95.0444104 28.19975,99.0824343 28.19975,102.945012 L28.19975,123.298781 L99.78775,123.298781 L99.78775,102.945012 C99.78775,99.0819323 97.474,95.0434064 93.923,93.5582629 Z"
                      id="Shape" fill="#2F456A"></path>
                <polygon id="Shape" fill="#5078B5"
                         points="75.8565 85.6333147 64.0395 123.29853 80.65875 107.957402 76.89825 104.063952 86.60425 90.4582112"></polygon>
                <polygon id="Shape" fill="#5078B5"
                         points="52.22275 85.6333147 64.0395 123.29853 47.42025 107.957402 51.1805 104.063952 41.47475 90.4582112"></polygon>
                <path d="M87.5015,47.4063705 L87.5015,39.7652988 C87.5015,26.7561753 76.99725,16.2098247 64.0395,16.2098247 C51.08175,16.2098247 40.5775,26.7559243 40.5775,39.7652988 L40.4855,39.7652988 L40.4855,47.4063705 C37.25425,47.4063705 34.63475,50.0363068 34.63475,53.2804303 C34.63475,56.5245538 37.25425,59.15449 40.4855,59.15449 L40.4855,63.5398924 C40.767,67.2383187 42.56325,70.5308845 45.2835,72.3342908 L59.42725,80.452255 C62.26725,82.3354781 65.7205,82.3354781 68.5605,80.452255 L82.66175,72.3342908 C85.3815,70.5308845 87.22,67.2383187 87.50175,63.5398924 L87.50175,59.154741 C90.733,59.154741 93.3525,56.5248048 93.3525,53.2806813 C93.35225,50.0365578 90.73275,47.4063705 87.5015,47.4063705 Z"
                      id="Shape" fill="#FEBBA0"></path>
                <polygon id="Shape" fill="#FFFFFF"
                         points="52.22275 85.6333147 56.6775 99.8324104 64.0065 91.9576614"></polygon>
                <polygon id="Shape" fill="#FFFFFF"
                         points="75.8565 85.6333147 71.4015 99.8324104 64.07275 91.9576614"></polygon>
                <polygon id="Shape" fill="#FFFFFF"
                         points="75.801 85.6579124 64.0395 123.298028 52.21 85.6330637 64.018 91.9574104"></polygon>
                <path d="M41.6215,13.5869163 C46.17425,7.35945418 50.9885,6.03017928 54.56325,7.89809163 C57.39725,5.2980239 61.644,2.70121912 68.73625,2.70121912 C84.75575,2.70121912 93.5215,15.8935697 93.5215,27.6196016 C93.5215,40.132757 87.4935,46.617992 87.4935,46.617992 C87.4935,46.617992 87.085,34.9449203 75.08125,34.9449203 C67.05675,34.9449203 62.22125,31.5250996 58.84675,27.3286972 C57.41275,31.3396135 50.46825,33.0235458 47.74,35.6123187 C42.3405,40.7343944 40.579,44.7438048 40.579,44.7438048 C40.579,44.7438048 31.96775,26.7893068 41.6215,13.5869163 Z"
                      id="Shape" fill="#FBC45E"></path>
                <ellipse id="Oval" fill="#FF634C" cx="100.59" cy="82.8266773" rx="4.7015" ry="4.72023108"></ellipse>
                <ellipse id="Oval" fill="#FF634C" cx="117.0455" cy="82.8266773" rx="4.7015" ry="4.72023108"></ellipse>
                <path d="M2.64625,125.920936 L2.612,125.920936 C1.1695,125.920936 0,124.746777 0,123.29853 C0,121.850283 1.1695,120.676124 2.612,120.676124 L2.64625,120.676124 C4.08875,120.676124 5.25825,121.850283 5.25825,123.29853 C5.25825,124.746777 4.08875,125.920936 2.64625,125.920936 Z"
                      id="Shape" fill="#000000"></path>
                <path d="M125.37525,125.920685 L125.341,125.920685 C123.8985,125.920685 122.729,124.746526 122.729,123.298279 C122.729,121.850032 123.8985,120.675873 125.341,120.675873 L125.37525,120.675873 C126.81775,120.675873 127.98725,121.850032 127.98725,123.298279 C127.98725,124.746526 126.81775,125.920685 125.37525,125.920685 Z"
                      id="Shape" fill="#000000"></path>
                <path d="M73.51925,56.5205378 C71.90925,56.5205378 70.5995,55.2055697 70.5995,53.5894064 C70.5995,51.972992 71.90925,50.6580239 73.51925,50.6580239 C75.12925,50.6580239 76.439,51.972992 76.439,53.5894064 C76.439,55.2058207 75.12925,56.5205378 73.51925,56.5205378 Z"
                      id="Shape" fill="#000000"></path>
                <path d="M54.468,56.5205378 C52.858,56.5205378 51.54825,55.2055697 51.54825,53.5894064 C51.54825,51.972992 52.858,50.6580239 54.468,50.6580239 C56.078,50.6580239 57.38775,51.972992 57.38775,53.5894064 C57.38725,55.2058207 56.07775,56.5205378 54.468,56.5205378 Z"
                      id="Shape" fill="#000000"></path>
                <path d="M64.0045,70.8210359 C61.157,70.8210359 58.84,68.4950558 58.84,65.6359602 C58.84,64.1877131 60.0095,63.0135538 61.452,63.0135538 L66.55675,63.0135538 C67.99925,63.0135538 69.16875,64.1877131 69.16875,65.6359602 C69.16875,68.4950558 66.85225,70.8210359 64.0045,70.8210359 Z"
                      id="Shape" fill="#000000"></path>
                <path d="M84.90225,30.0304183 C83.45975,30.0304183 82.29025,28.856259 82.29025,27.408012 C82.29025,23.2685857 80.014,19.7019323 75.52425,16.8066932 C74.3105,16.0238367 73.95875,14.4016494 74.738,13.1830637 C75.518,11.9647291 77.1335,11.6113267 78.34725,12.3936813 C84.34425,16.2610279 87.51425,21.4526295 87.51425,27.408012 C87.51425,28.85651 86.34475,30.0304183 84.90225,30.0304183 Z"
                      id="Shape" fill="#000000"></path>
                <path d="M68.609,13.6145259 C68.59,13.6145259 68.57075,13.6145259 68.55175,13.6140239 C67.119,13.6024781 65.9615,12.4328367 65.9615,10.9916175 C65.9615,9.57549801 67.0795,8.42166932 68.47725,8.37096813 C68.7005,8.36117928 68.9385,8.38125896 69.1535,8.42744223 C70.564,8.73089641 71.4625,10.1249283 71.16025,11.5410478 C70.8975,12.7719323 69.81425,13.6145259 68.609,13.6145259 Z"
                      id="Shape" fill="#000000"></path>
                <path d="M28.784,83.6931155 L12.58975,83.6931155 C11.14725,83.6931155 9.97775,82.5189562 9.97775,81.0707092 C9.97775,79.6224622 11.14725,78.4483028 12.58975,78.4483028 L28.784,78.4483028 C30.2265,78.4483028 31.396,79.6224622 31.396,81.0707092 C31.396,82.5189562 30.22675,83.6931155 28.784,83.6931155 Z"
                      id="Shape" fill="#000000"></path>
                <path d="M28.784,65.8460438 L12.58975,65.8460438 C11.14725,65.8460438 9.97775,64.6718845 9.97775,63.2236375 C9.97775,61.7753904 11.14725,60.6012311 12.58975,60.6012311 L28.784,60.6012311 C30.2265,60.6012311 31.396,61.7753904 31.396,63.2236375 C31.396,64.6718845 30.22675,65.8460438 28.784,65.8460438 Z"
                      id="Shape" fill="#000000"></path>
                <path d="M28.784,74.7694542 L12.58975,74.7694542 C11.14725,74.7694542 9.97775,73.5952948 9.97775,72.1470478 C9.97775,70.6988008 11.14725,69.5246414 12.58975,69.5246414 L28.784,69.5246414 C30.2265,69.5246414 31.396,70.6988008 31.396,72.1470478 C31.396,73.5955458 30.22675,74.7694542 28.784,74.7694542 Z"
                      id="Shape" fill="#000000"></path>
                <path d="M28.784,92.6162749 L28.7445,92.6162749 C27.302,92.6162749 26.1325,91.4421155 26.1325,89.9938685 C26.1325,88.5456215 27.302,87.3714622 28.7445,87.3714622 L28.784,87.3714622 C30.2265,87.3714622 31.396,88.5456215 31.396,89.9938685 C31.396,91.4421155 30.22675,92.6162749 28.784,92.6162749 Z"
                      id="Shape" fill="#000000"></path>
                <path d="M20.212,92.6165259 L12.58975,92.6165259 C11.14725,92.6165259 9.97775,91.4423665 9.97775,89.9941195 C9.97775,88.5458725 11.14725,87.3717131 12.58975,87.3717131 L20.212,87.3717131 C21.6545,87.3717131 22.824,88.5458725 22.824,89.9941195 C22.824,91.4423665 21.65475,92.6165259 20.212,92.6165259 Z"
                      id="Shape" fill="#000000"></path>
                <path d="M127.235,89.4035259 L123.7045,85.8589602 C124.12425,84.9337888 124.36,83.9074661 124.36,82.8264263 C124.36,78.7776096 121.079,75.4837888 117.0465,75.4837888 C113.014,75.4837888 109.733,78.7778606 109.733,82.8264263 C109.733,86.875243 113.014,90.1690637 117.0465,90.1690637 C118.093,90.1690637 119.088,89.9456773 119.98925,89.5463426 L122.77625,92.3444462 L122.77625,106.53802 L111.54475,106.53802 L111.54475,91.2581355 C111.54475,90.5626255 111.2695,89.8954781 110.77975,89.4037769 L107.24925,85.8592112 C107.669,84.9340398 107.90475,83.9077171 107.90475,82.8266773 C107.90475,78.7778606 104.62375,75.4840398 100.59125,75.4840398 C96.55875,75.4840398 93.27775,78.7781116 93.27775,82.8266773 C93.27775,86.875243 96.55875,90.1693147 100.59125,90.1693147 C101.63775,90.1693147 102.63275,89.9459283 103.534,89.5465936 L106.321,92.3446972 L106.321,106.538271 L102.40025,106.538271 L102.40025,102.945263 C102.40025,97.8337291 99.3275,92.9784622 94.92825,91.1379084 L78.118,84.106004 C77.5205,83.856012 77.134,83.2744542 77.134,82.6241235 L77.134,78.5404183 L83.9615,74.6100717 C84.009,74.5827131 84.05575,74.5535976 84.10175,74.5232271 C87.52025,72.2567331 89.76525,68.2254861 90.10675,63.7401873 C90.112,63.6739243 90.11425,63.6069084 90.11425,63.5403944 L90.11425,61.363255 C93.50625,60.2556096 95.96475,57.0508924 95.96475,53.2806813 C95.96475,49.9901235 94.0915,47.1312789 91.3595,45.7204303 C93.349,42.4988964 96.13425,36.4175139 96.13425,27.6198526 C96.13425,14.0821315 85.8865,0.079063745 68.737,0.079063745 C62.94725,0.079063745 58.13325,1.6502988 54.07525,4.87434263 C49.26575,3.40626693 43.943,5.98023108 39.51675,12.035008 C30.126,24.8774701 36.2475,41.2946175 37.87425,45.0946972 L37.87425,45.1981076 C35.3055,46.0369363 33.2745,48.0792908 32.439,50.6582749 L2.62475,50.6582749 C1.18225,50.6582749 0.01275,51.8324343 0.01275,53.2806813 L0.01275,100.483745 C0.01275,101.931992 1.18225,103.106151 2.62475,103.106151 L25.58775,103.106151 L25.58775,120.676124 L11.10925,120.676124 C9.66675,120.676124 8.49725,121.850283 8.49725,123.29853 C8.49725,124.746777 9.66675,125.920936 11.10925,125.920936 L116.9035,125.920936 C118.346,125.920936 119.5155,124.746777 119.5155,123.29853 C119.5155,121.850283 118.346,120.676124 116.9035,120.676124 L102.39975,120.676124 L102.39975,111.782582 L122.776,111.782582 L122.776,115.963673 C122.776,117.41192 123.9455,118.58608 125.388,118.58608 C126.8305,118.58608 128,117.41192 128,115.963673 L128,91.2581355 C128,90.5623745 127.72475,89.8952271 127.235,89.4035259 Z M98.50125,82.8261753 C98.50125,81.6693347 99.43875,80.7283506 100.59075,80.7283506 C101.743,80.7283506 102.68025,81.6695857 102.68025,82.8261753 C102.68025,83.9830159 101.74275,84.924 100.59075,84.924 C99.43875,84.924 98.50125,83.9830159 98.50125,82.8261753 Z M43.727,15.1388247 L43.727,15.1388247 C47.02175,10.6316892 50.62175,8.7946494 53.35775,10.2243227 C54.33025,10.7325896 55.51575,10.5767211 56.3255,9.8340239 C58.436,7.89784064 62.01875,5.32387649 68.7365,5.32387649 C82.616,5.32387649 90.91,16.6601116 90.91,27.6198526 C90.91,33.0423705 89.67425,37.234255 88.393,40.1229681 C88.2935,39.9214183 88.18825,39.7186135 88.07675,39.5155578 C86.27475,36.2340359 82.5575,32.3227649 75.08225,32.3227649 C69.0365,32.3227649 64.5235,30.2126414 60.87975,25.6816614 C60.379,25.0591912 59.62925,24.7065418 58.84775,24.7065418 C58.70325,24.7065418 58.55775,24.7185896 58.4125,24.7431873 C57.4815,24.9010637 56.708,25.5508924 56.389,26.4429323 C55.83625,27.9885657 53.189,29.3725578 50.8535,30.5939044 C48.991,31.5677689 47.2315,32.4876693 45.94725,33.706506 C43.93525,35.6150797 42.38875,37.3936375 41.2255,38.9051355 C39.529,33.1108924 37.9335,23.0617649 43.727,15.1388247 Z M40.48575,50.0290279 C41.92825,50.0290279 43.09775,48.8548685 43.09775,47.4066215 L43.09775,45.5447331 C43.56875,44.6398924 45.398,41.4424542 49.53475,37.5181315 C50.29,36.8017888 51.803,36.0103984 53.266,35.2456135 C55.27725,34.1939402 57.45775,33.0541673 59.105,31.4811753 C63.38175,35.5704024 68.6395,37.5675777 75.08175,37.5675777 C79.028,37.5675777 81.7565,38.9867092 83.42225,41.9057928 C84.75625,44.2433187 84.88275,46.6995657 84.8835,46.7103586 C84.88425,46.7289323 84.8885,46.746502 84.8895,46.7648247 L84.8895,47.4068725 C84.8895,48.8551195 86.059,50.0292789 87.5015,50.0292789 C89.28725,50.0292789 90.74,51.4880677 90.74,53.2806813 C90.74,55.0732948 89.287,56.5320837 87.5015,56.5320837 C86.059,56.5320837 84.8895,57.706243 84.8895,59.15449 L84.8895,63.4339721 C84.65225,66.2069761 83.279,68.7483108 81.285,70.1039402 L67.26125,78.1772271 C67.2135,78.2048367 67.167,78.2337012 67.121,78.2640717 C65.16325,79.5624741 62.825,79.5627251 60.8665,78.2640717 C60.81975,78.2331992 60.77225,78.2035817 60.72325,78.1757211 L46.659,70.1031873 C44.663,68.7463028 43.338,66.2649562 43.09775,63.4344741 L43.09775,59.15449 C43.09775,57.706243 41.92825,56.5320837 40.48575,56.5320837 C38.7,56.5320837 37.24725,55.0732948 37.24725,53.2806813 C37.24725,51.4880677 38.7,50.0290279 40.48575,50.0290279 Z M64.0395,89.0019323 L55.795,84.5768725 C55.979,83.9536494 56.078,83.2972948 56.078,82.6233705 L56.078,81.5506135 L58.06225,82.6896335 C59.89575,83.8851275 61.94475,84.482749 63.9935,84.482749 C66.04325,84.482749 68.09275,83.8846255 69.92625,82.6886295 L71.909,81.5470996 L71.909,82.6233705 C71.909,83.3128566 72.01125,83.9837689 72.20325,84.6200438 L64.0395,89.0019323 Z M71.4415,90.9765179 L70.2545,94.7592789 L68.302,92.6614542 L71.4415,90.9765179 Z M59.77675,92.6609522 L57.82425,94.7587769 L56.63725,90.9760159 L59.77675,92.6609522 Z M26.6125,97.8613386 L5.23675,97.8613386 L5.23675,55.9030876 L32.4385,55.9030876 C33.27425,58.4818207 35.30525,60.5241753 37.87375,61.363255 L37.87375,63.5403944 C37.87375,63.6069084 37.87625,63.6739243 37.88125,63.7401873 C38.22425,68.2438088 40.45325,72.2748048 43.84425,74.5232271 C43.891,74.5540996 43.93875,74.5834661 43.9875,74.6115777 L50.85425,78.5527171 L50.85425,82.6236215 C50.85425,83.2737012 50.468,83.855259 49.87025,84.105502 L41.36125,87.6648765 L41.36125,78.1059442 C41.36125,76.6576972 40.19175,75.4835378 38.74925,75.4835378 C37.30675,75.4835378 36.13725,76.6576972 36.13725,78.1059442 L36.13725,89.8502988 L33.05975,91.1376574 C30.17725,92.3431912 27.865,94.8431116 26.6125,97.8613386 Z M30.8115,120.676124 L30.8115,102.944761 C30.8115,99.9890319 32.64175,96.9943984 35.06875,95.9788685 L40.561,93.681502 L47.78675,103.810697 L45.545,106.132159 C45.0545,106.640175 44.789,107.325645 44.80925,108.032952 C44.8295,108.740259 45.13375,109.409414 45.6525,109.888315 L57.3395,120.676625 L30.8115,120.676625 L30.8115,120.676124 Z M51.1625,107.849725 L53.05575,105.889697 C53.935,104.979586 54.0395,103.567733 53.30425,102.537143 L45.51,91.6112869 L50.68125,89.4482032 L58.6115,114.725761 L51.1625,107.849725 Z M64.0395,114.569641 L59.62675,100.504327 L64.0395,95.762761 L68.45225,100.504327 L64.0395,114.569641 Z M77.38725,89.4818367 L82.548,91.6406534 L74.775,102.536892 C74.03975,103.567733 74.14425,104.979084 75.0235,105.889446 L76.91675,107.849474 L69.468,114.725259 L77.38725,89.4818367 Z M82.42675,109.887813 C82.9455,109.408912 83.2495,108.740008 83.27,108.03245 C83.29,107.325143 83.025,106.639673 82.53425,106.131657 L80.2925,103.810195 L87.4975,93.7106175 L92.919,95.9783665 C95.346,96.9936454 97.17625,99.9882789 97.17625,102.944259 L97.17625,109.159673 L97.17625,120.675622 L70.7395,120.675622 L82.42675,109.887813 Z M114.95675,82.8261753 C114.95675,81.6693347 115.89425,80.7283506 117.04625,80.7283506 C118.1985,80.7283506 119.13575,81.6695857 119.13575,82.8261753 C119.13575,83.9830159 118.19825,84.924 117.04625,84.924 C115.89425,84.924 114.95675,83.9830159 114.95675,82.8261753 Z"
                      id="Shape" fill="#000000"></path>
            </g>
        </g>
    </g>
</svg>