<?xml version="1.0" encoding="UTF-8"?>
<svg width="128px" height="128px" viewBox="0 0 128 128" version="1.1" xmlns="http://www.w3.org/2000/svg"
>
    <!-- Generator: Sketch 45.2 (43514) - http://www.bohemiancoding.com/sketch -->
    <title>programmer</title>
    <desc>Created with Sketch.</desc>
    <defs></defs>
    <g id="Page-1" stroke="none" stroke-width="1" fill="none" fill-rule="evenodd">
        <g id="50-Professions-and-Job-Icons" transform="translate(-486.000000, -783.000000)" fill-rule="nonzero">
            <g id="programmer" transform="translate(486.000000, 783.000000)">
                <path d="M125.388,60.87175 L125.388,64.002 L102.925,64.002 L102.925,60.87175 C102.925,59.04875 104.40175,57.5715 106.2245,57.5715 L122.08875,57.5715 C123.91025,57.5715 125.388,59.04875 125.388,60.87175 L125.388,60.87175 Z"
                      id="Shape" fill="#ECEBED"></path>
                <path d="M106.34375,86.9115 L125.388,86.9115 L125.388,90.93 C125.388,92.753 123.91025,94.23 122.0885,94.23 L106.22425,94.23 C104.4015,94.23 102.92475,92.75275 102.92475,90.93 L102.92475,86.9115 L106.34375,86.9115 Z"
                      id="Shape" fill="#ECEBED"></path>
                <rect id="Rectangle-path" fill="#27B5F7" x="102.92525" y="64.0015" width="22.463"
                      height="22.90975"></rect>
                <path d="M64.483,58.8555 L64.483,98.92375 L2.62475,98.92375 L2.62475,58.8555 C2.62475,56.90475 4.1345,55.323 5.9965,55.323 L61.111,55.323 C62.97325,55.323 64.483,56.90475 64.483,58.8555 L64.483,58.8555 Z"
                      id="Shape" fill="#27B5F7"></path>
                <path d="M53.466,79.7815 L53.466,84.86975 C53.466,86.5695 52.444,88.10275 50.87475,88.757 L34.0645,95.761 C30.513,97.241 28.19975,101.263 28.19975,105.11025 L28.19975,125.38325 L99.78775,125.38325 L99.78775,105.11025 C99.78775,101.263 97.47425,97.2405 93.923,95.761 L77.11275,88.757 C75.5435,88.10325 74.5215,86.56975 74.5215,84.86975 L74.5215,79.7815 L53.466,79.7815 Z"
                      id="Shape" fill="#FEBBA0"></path>
                <path d="M93.923,95.761 L77.11275,88.757 C75.69825,88.16775 74.73125,86.863 74.5535,85.36675 L74.5535,88.57075 C74.5535,94.3805 69.8,99.1345 63.98975,99.1345 L63.98975,99.1345 C58.18,99.1345 53.42625,94.381 53.42625,88.57075 L53.42625,85.4315 C53.22875,86.90075 52.26825,88.176 50.87425,88.75675 L34.064,95.76075 C30.5125,97.24075 28.19925,101.26275 28.19925,105.11 L28.19925,125.383 L99.78725,125.383 L99.78725,105.11 C99.78775,101.26325 97.474,97.24075 93.923,95.761 Z"
                      id="Shape" fill="#89CD37"></path>
                <path d="M87.5015,49.79275 L87.5015,42.182 C87.5015,29.22425 76.99725,18.72 64.0395,18.72 C51.08175,18.72 40.5775,29.22425 40.5775,42.182 L40.4855,42.182 L40.4855,49.79275 C37.25425,49.79275 34.63475,52.41225 34.63475,55.6435 C34.63475,58.87475 37.25425,61.49425 40.4855,61.49425 L40.4855,65.86225 C40.767,69.546 42.56325,72.8255 45.2835,74.62175 L59.42725,82.7075 C62.26725,84.58325 65.7205,84.58325 68.5605,82.7075 L82.66175,74.62175 C85.3815,72.8255 87.22,69.546 87.50175,65.86225 L87.50175,61.49425 C90.733,61.49425 93.3525,58.87475 93.3525,55.6435 C93.35225,52.412 90.73275,49.79275 87.5015,49.79275 Z"
                      id="Shape" fill="#FEBBA0"></path>
                <path d="M86.3845,17.494 C81.9585,11.854 77.27775,10.65 73.80225,12.3415 C71.04675,9.9865 66.91825,7.63475 60.02325,7.63475 C44.449,7.63475 35.927,19.58325 35.927,30.20325 C35.927,41.53675 40.486,48.75875 40.486,48.75875 C40.486,48.75875 42.1845,36.83775 53.8545,36.83775 C61.656,36.83775 66.357,33.7405 69.63775,29.93975 C71.032,33.5725 77.7835,35.09775 80.4355,37.44225 C85.68475,42.0815 87.49775,45.7125 87.49775,45.7125 C87.49775,45.7125 95.77,29.4515 86.3845,17.494 Z"
                      id="Shape" fill="#703E41"></path>
                <path d="M28.3915,67.6585 L28.35725,67.6585 C26.91475,67.6585 25.74525,66.489 25.74525,65.0465 C25.74525,63.604 26.91475,62.4345 28.35725,62.4345 L28.3915,62.4345 C29.834,62.4345 31.0035,63.604 31.0035,65.0465 C31.0035,66.489 29.834,67.6585 28.3915,67.6585 Z"
                      id="Shape" fill="#000000"></path>
                <path d="M19.907,67.6585 L12.454,67.6585 C11.0115,67.6585 9.842,66.489 9.842,65.0465 C9.842,63.604 11.0115,62.4345 12.454,62.4345 L19.907,62.4345 C21.3495,62.4345 22.519,63.604 22.519,65.0465 C22.519,66.489 21.3495,67.6585 19.907,67.6585 Z"
                      id="Shape" fill="#000000"></path>
                <path d="M33.55375,82.895 L12.454,82.895 C11.0115,82.895 9.842,81.7255 9.842,80.283 C9.842,78.8405 11.0115,77.671 12.454,77.671 L33.55375,77.671 C34.99625,77.671 36.16575,78.8405 36.16575,80.283 C36.16575,81.7255 34.9965,82.895 33.55375,82.895 Z"
                      id="Shape" fill="#000000"></path>
                <path d="M28.3915,75.2765 L28.35725,75.2765 C26.91475,75.2765 25.74525,74.107 25.74525,72.6645 C25.74525,71.222 26.91475,70.0525 28.35725,70.0525 L28.3915,70.0525 C29.834,70.0525 31.0035,71.222 31.0035,72.6645 C31.0035,74.10725 29.834,75.2765 28.3915,75.2765 Z"
                      id="Shape" fill="#000000"></path>
                <path d="M19.907,75.27675 L12.454,75.27675 C11.0115,75.27675 9.842,74.10725 9.842,72.66475 C9.842,71.22225 11.0115,70.05275 12.454,70.05275 L19.907,70.05275 C21.3495,70.05275 22.519,71.22225 22.519,72.66475 C22.519,74.1075 21.3495,75.27675 19.907,75.27675 Z"
                      id="Shape" fill="#000000"></path>
                <path d="M36.20575,75.27675 L35.96175,75.27675 C34.51925,75.27675 33.34975,74.10725 33.34975,72.66475 C33.34975,71.22225 34.51925,70.05275 35.96175,70.05275 L36.20575,70.05275 C37.64825,70.05275 38.81775,71.22225 38.81775,72.66475 C38.81775,74.1075 37.64825,75.27675 36.20575,75.27675 Z"
                      id="Shape" fill="#000000"></path>
                <path d="M2.64625,127.99525 L2.612,127.99525 C1.1695,127.99525 0,126.826 0,125.38325 C0,123.94075 1.1695,122.77125 2.612,122.77125 L2.64625,122.77125 C4.08875,122.77125 5.25825,123.94075 5.25825,125.38325 C5.25825,126.826 4.08875,127.99525 2.64625,127.99525 Z"
                      id="Shape" fill="#000000"></path>
                <path d="M125.37525,127.99525 L125.341,127.99525 C123.8985,127.99525 122.729,126.82575 122.729,125.38325 C122.729,123.94075 123.8985,122.77125 125.341,122.77125 L125.37525,122.77125 C126.81775,122.77125 127.98725,123.94075 127.98725,125.38325 C127.98725,126.826 126.81775,127.99525 125.37525,127.99525 Z"
                      id="Shape" fill="#000000"></path>
                <path d="M73.51925,58.8705 C71.90925,58.8705 70.5995,57.56075 70.5995,55.951 C70.5995,54.341 71.90925,53.03125 73.51925,53.03125 C75.12925,53.03125 76.439,54.341 76.439,55.951 C76.439,57.56075 75.12925,58.8705 73.51925,58.8705 Z"
                      id="Shape" fill="#000000"></path>
                <path d="M54.468,58.8705 C52.858,58.8705 51.54825,57.56075 51.54825,55.951 C51.54825,54.341 52.858,53.03125 54.468,53.03125 C56.078,53.03125 57.38775,54.341 57.38775,55.951 C57.38725,57.56075 56.07775,58.8705 54.468,58.8705 Z"
                      id="Shape" fill="#000000"></path>
                <path d="M64.0045,73.114 C61.157,73.114 58.84,70.79725 58.84,67.9495 C58.84,66.507 60.0095,65.3375 61.452,65.3375 L66.55675,65.3375 C67.99925,65.3375 69.16875,66.507 69.16875,67.9495 C69.16875,70.7975 66.85225,73.114 64.0045,73.114 Z"
                      id="Shape" fill="#000000"></path>
                <path d="M55.73,119.7795 C55.0615,119.7795 54.393,119.5245 53.883,119.0145 L48.01675,113.14825 C46.99675,112.12825 46.99675,110.47425 48.01675,109.454 L53.883,103.58775 C54.903,102.56775 56.557,102.56775 57.57725,103.58775 C58.5975,104.60775 58.59725,106.26175 57.57725,107.282 L53.55775,111.30125 L57.57725,115.3205 C58.59725,116.3405 58.59725,117.9945 57.57725,119.01475 C57.06725,119.52475 56.3985,119.7795 55.73,119.7795 Z"
                      id="Shape" fill="#000000"></path>
                <path d="M72.1825,119.7795 C71.514,119.7795 70.8455,119.5245 70.3355,119.0145 C69.3155,117.9945 69.3155,116.3405 70.3355,115.32025 L74.355,111.301 L70.3355,107.28175 C69.3155,106.26175 69.3155,104.60775 70.3355,103.5875 C71.3555,102.5675 73.0095,102.5675 74.02975,103.5875 L79.896,109.45375 C80.916,110.47375 80.916,112.12775 79.896,113.148 L74.02975,119.01425 C73.5195,119.52475 72.85075,119.7795 72.1825,119.7795 Z"
                      id="Shape" fill="#000000"></path>
                <path d="M62.9575,119.78 C62.8005,119.78 62.64175,119.76575 62.48175,119.7365 C61.063,119.47525 60.12475,118.11375 60.38575,116.69475 L62.556,104.9025 C62.81725,103.484 64.17775,102.5455 65.59775,102.8065 C67.0165,103.06775 67.95475,104.42925 67.69375,105.84825 L65.5235,117.6405 C65.2915,118.899 64.19325,119.78 62.9575,119.78 Z"
                      id="Shape" fill="#000000"></path>
                <path d="M20.426,37.00375 C16.08125,37.00375 12.5465,33.469 12.5465,29.12425 L12.5465,23.9875 C12.5465,19.64275 16.08125,16.108 20.426,16.108 C24.77075,16.108 28.3055,19.64275 28.3055,23.9875 L28.3055,29.1245 C28.3055,33.46925 24.77075,37.00375 20.426,37.00375 Z M20.426,21.33175 C18.96175,21.33175 17.7705,22.523 17.7705,23.98725 L17.7705,29.12425 C17.7705,30.5885 18.96175,31.77975 20.426,31.77975 C21.89025,31.77975 23.0815,30.5885 23.0815,29.12425 L23.0815,23.9875 C23.0815,22.52325 21.89025,21.33175 20.426,21.33175 Z"
                      id="Shape" fill="#000000"></path>
                <path d="M7.932,37.00375 C6.4895,37.00375 5.32,35.83425 5.32,34.39175 L5.32,25.026 L4.47175,25.87425 C3.45175,26.894 1.79775,26.894 0.7775,25.87425 C-0.2425,24.85425 -0.2425,23.20025 0.7775,22.18 L6.085,16.873 C6.83175,16.12625 7.9555,15.90275 8.9315,16.307 C9.9075,16.71125 10.544,17.66375 10.544,18.72025 L10.544,34.39225 C10.544,35.83425 9.37475,37.00375 7.932,37.00375 Z"
                      id="Shape" fill="#000000"></path>
                <path d="M107.7135,20.9005 C103.36875,20.9005 99.834,17.36575 99.834,13.021 L99.834,7.88425 C99.834,3.5395 103.36875,0.00475 107.7135,0.00475 C112.05825,0.00475 115.593,3.5395 115.593,7.88425 L115.593,13.02125 C115.593,17.36575 112.05825,20.9005 107.7135,20.9005 Z M107.7135,5.22875 C106.24925,5.22875 105.058,6.42 105.058,7.88425 L105.058,13.02125 C105.058,14.4855 106.24925,15.67675 107.7135,15.67675 C109.17775,15.67675 110.369,14.4855 110.369,13.02125 L110.369,7.88425 C110.369,6.42 109.17775,5.22875 107.7135,5.22875 Z"
                      id="Shape" fill="#000000"></path>
                <path d="M125.388,20.9005 C123.9455,20.9005 122.776,19.731 122.776,18.2885 L122.776,8.9225 L121.92775,9.77125 C120.90775,10.791 119.25375,10.791 118.2335,9.77125 C117.2135,8.75125 117.2135,7.09725 118.2335,6.077 L123.54075,0.76975 C124.28775,0.023 125.411,-0.20075 126.38725,0.20375 C127.36325,0.608 127.99975,1.5605 127.99975,2.617 L127.99975,18.289 C128,19.73125 126.8305,20.9005 125.388,20.9005 Z"
                      id="Shape" fill="#000000"></path>
                <path d="M122.0885,54.9595 L106.22425,54.9595 C102.96475,54.9595 100.31275,57.61175 100.31275,60.8715 L100.31275,90.93 C100.31275,94.18975 102.96475,96.842 106.22425,96.842 L122.0885,96.842 C125.348,96.842 128,94.18975 128,90.93 L128,60.8715 C128,57.61175 125.348,54.9595 122.0885,54.9595 Z M105.537,66.61375 L122.776,66.61375 L122.776,84.2995 L105.537,84.2995 L105.537,66.61375 Z M105.537,60.8715 C105.537,60.492 105.8455,60.1835 106.2245,60.1835 L122.08875,60.1835 C122.46775,60.1835 122.77625,60.49225 122.77625,60.8715 L122.77625,61.38975 L105.53725,61.38975 L105.537,60.8715 L105.537,60.8715 Z M122.776,90.93 C122.776,91.3095 122.4675,91.618 122.0885,91.618 L106.22425,91.618 C105.84525,91.618 105.53675,91.30925 105.53675,90.93 L105.53675,89.5235 L122.77575,89.5235 L122.776,90.93 L122.776,90.93 Z"
                      id="Shape" fill="#000000"></path>
                <path d="M116.89075,122.77125 L102.39975,122.77125 L102.39975,105.11025 C102.39975,100.019 99.327,95.183 94.92775,93.34975 L78.1175,86.34575 C77.59725,86.129 77.2375,85.6615 77.15325,85.11675 C77.15225,85.10425 77.15075,85.09175 77.14925,85.07925 C77.14,85.01025 77.1335,84.94075 77.1335,84.86975 L77.1335,80.80225 L83.961,76.8875 C84.0085,76.86025 84.05525,76.83125 84.10125,76.801 C87.51975,74.5435 89.76475,70.52825 90.10625,66.06075 C90.1115,65.99475 90.11375,65.928 90.11375,65.86175 L90.11375,63.69325 C93.50575,62.59 95.96425,59.398 95.96425,55.64275 C95.96425,51.8875 93.50525,48.69625 90.1135,47.5925 L90.1135,46.29625 C91.604,43.0535 97.791,27.795 88.4395,15.881 C84.11825,10.37425 78.93525,8.034 74.2675,9.37375 C70.319,6.448 65.64275,5.0225 60.02375,5.0225 C43.30575,5.0225 33.3155,17.8255 33.3155,30.203 C33.3155,38.5145 35.6165,44.7555 37.08675,47.896 C34.99825,48.817 33.352,50.55875 32.554,52.7105 L5.9965,52.7105 C2.697,52.7105 0.01275,55.467 0.01275,58.855 L0.01275,98.92325 C0.01275,100.36575 1.18225,101.53525 2.62475,101.53525 L17.35,101.53525 L17.35,106.8375 L15.4235,106.8375 C13.981,106.8375 12.8115,108.007 12.8115,109.4495 C12.8115,110.892 13.981,112.0615 15.4235,112.0615 L25.58775,112.0615 L25.58775,122.77075 L11.0965,122.77075 C9.654,122.77075 8.4845,123.94025 8.4845,125.38275 C8.4845,126.82525 9.654,127.99475 11.0965,127.99475 L116.89075,127.99475 C118.33325,127.99475 119.50275,126.82525 119.50275,125.38275 C119.50275,123.9405 118.33325,122.77125 116.89075,122.77125 Z M90.74,55.64325 C90.74,57.429 89.287,58.88175 87.5015,58.88175 C86.059,58.88175 84.8895,60.05125 84.8895,61.49375 L84.8895,65.75625 C84.65225,68.5185 83.279,71.04975 81.28475,72.39975 L67.26125,80.441 C67.2135,80.4685 67.167,80.49725 67.121,80.5275 C65.16325,81.82075 62.825,81.821 60.8665,80.5275 C60.81975,80.4965 60.77225,80.46725 60.72325,80.4395 L46.65875,72.39925 C44.66275,71.04775 43.33775,68.57625 43.0975,65.757 L43.0975,61.494 C43.0975,60.0515 41.928,58.882 40.4855,58.882 C38.69975,58.882 37.247,57.429 37.247,55.6435 C37.247,54.0385 38.42175,52.706 39.95625,52.452 L42.8485,53.91475 C42.68125,54.67025 42.59025,55.45375 42.59025,56.25875 C42.59025,62.234 47.4515,67.095 53.4265,67.095 C58.57425,67.095 62.89225,63.48575 63.99025,58.66525 C65.088,63.4855 69.406,67.095 74.554,67.095 C80.52925,67.095 85.39025,62.23375 85.39025,56.25875 C85.39025,55.46525 85.30225,54.692 85.1395,53.9465 L88.04025,52.45325 C89.56975,52.71075 90.74,54.0415 90.74,55.64325 Z M71.9095,83.798 L71.9095,88.571 C71.9095,92.9555 68.3745,96.5225 63.99,96.5225 C59.6055,96.5225 56.078,92.9555 56.078,88.571 L56.078,83.8015 L58.0625,84.93625 C59.89575,86.127 61.94475,86.72225 63.99375,86.72225 C66.04325,86.72225 68.09275,86.1265 69.92625,84.93525 L71.9095,83.798 Z M74.5535,45.4225 C69.40575,45.4225 65.08775,49.03175 63.98975,53.852 C62.892,49.03175 58.574,45.4225 53.426,45.4225 C50.1265,45.4225 47.169,46.90625 45.17975,49.24 L43.25525,48.26675 C43.85925,45.876 46.19375,39.4505 53.85425,39.4505 C60.11,39.4505 65.221,37.63575 69.38775,33.91825 C71.00425,35.361 73.13075,36.39675 75.0925,37.35225 C76.5125,38.04375 77.98025,38.75875 78.70575,39.39975 C82.3895,42.65525 84.24425,45.3645 84.88925,46.41325 L84.88925,48.19975 L82.82075,49.26475 C80.83175,46.91675 77.8645,45.4225 74.5535,45.4225 Z M80.166,56.2585 C80.166,59.35325 77.64825,61.87075 74.55375,61.87075 C71.459,61.87075 68.9415,59.353 68.9415,56.2585 C68.9415,53.164 71.45925,50.6465 74.55375,50.6465 C77.64825,50.64625 80.166,53.164 80.166,56.2585 Z M59.03875,56.2585 C59.03875,59.35325 56.521,61.87075 53.4265,61.87075 C50.33175,61.87075 47.81425,59.353 47.81425,56.2585 C47.81425,53.164 50.332,50.6465 53.4265,50.6465 C56.521,50.64625 59.03875,53.164 59.03875,56.2585 Z M60.02375,10.24675 C66.57375,10.24675 70.056,12.5755 72.1055,14.32725 C72.8955,15.00275 74.011,15.14475 74.94575,14.69025 C77.62725,13.385 81.13575,15.03575 84.33,19.10625 L84.33,19.10625 C89.81675,26.0965 88.38675,35.0145 86.8065,40.217 C85.6545,38.8415 84.131,37.222 82.1655,35.48525 C80.9075,34.37325 79.19425,33.53875 77.38025,32.6555 C75.2415,31.61375 72.58025,30.3175 72.076,29.00425 C71.747,28.14675 70.9915,27.525 70.08675,27.367 C69.1815,27.20875 68.2605,27.53775 67.66025,28.2335 C64.131,32.322 59.74375,34.22625 53.85425,34.22625 C46.6365,34.22625 42.655,38.129 40.586,41.4035 C40.49425,41.5485 40.406,41.69325 40.32,41.83775 C39.38875,38.92125 38.539,34.95675 38.539,30.20375 C38.53925,20.39375 46.57525,10.24675 60.02375,10.24675 Z M25.5875,105.1105 L25.5875,106.83825 L22.574,106.83825 L22.574,101.536 L26.09375,101.536 C25.7655,102.68775 25.5875,103.8915 25.5875,105.1105 Z M28.959,96.312 L5.23675,96.312 L5.23675,58.8555 C5.23675,58.3565 5.58475,57.935 5.9965,57.935 L32.345,57.935 C33.1115,60.6535 35.19975,62.82375 37.87375,63.69375 L37.87375,65.86225 C37.87375,65.9285 37.87625,65.99525 37.88125,66.06125 C38.22425,70.547 40.45325,74.562 43.84425,76.8015 C43.891,76.83225 43.93875,76.8615 43.9875,76.8895 L50.85425,80.815 L50.85425,84.86975 C50.85425,85.51725 50.468,86.0965 49.87025,86.34575 L33.05975,93.35 C31.4995,94 30.1075,95.02925 28.959,96.312 Z M97.17575,122.77125 L30.8115,122.77125 L30.8115,105.11025 C30.8115,102.16625 32.64175,99.1835 35.06875,98.172 L51.14075,91.4755 C52.46775,97.347 57.723,101.74625 63.9895,101.74625 C70.25725,101.74625 75.513,97.3455 76.839,91.47275 L92.91775,98.17225 C95.34475,99.1835 97.175,102.16625 97.175,105.1105 L97.175,122.77125 L97.17575,122.77125 Z"
                      id="Shape" fill="#000000"></path>
            </g>
        </g>
    </g>
</svg>