<?xml version="1.0" encoding="UTF-8"?>
<svg width="128px" height="128px" viewBox="0 0 128 128" version="1.1" xmlns="http://www.w3.org/2000/svg"
>
    <!-- Generator: Sketch 45.2 (43514) - http://www.bohemiancoding.com/sketch -->
    <title>astronaut</title>
    <desc>Created with Sketch.</desc>
    <defs></defs>
    <g id="Page-1" stroke="none" stroke-width="1" fill="none" fill-rule="evenodd">
        <g id="50-Professions-and-Job-Icons" transform="translate(-1386.000000, -2886.000000)" fill-rule="nonzero">
            <g id="astronaut" transform="translate(1386.000000, 2886.000000)">
                <path d="M15.98175,35.2215 C14.638,38.46925 15.30975,42.38875 17.99775,44.96475 L19.45375,46.3085 L20.90975,44.96475 C23.5975,42.277 24.2695,38.46925 22.92575,35.2215 L15.98175,35.2215 L15.98175,35.2215 Z"
                      id="Shape" fill="#FF634C"></path>
                <path d="M23.59725,35.2215 C31.54875,25.261 30.09275,11.9195 19.3415,3.147 L19.3415,3.147 C8.59025,11.828 7.1345,25.26075 15.08575,35.2215 L23.59725,35.2215 Z"
                      id="Shape" fill="#4582FF"></path>
                <path d="M36.05825,35.2215 L28.53675,19.18425 L28.5295,19.2075 C29.099,24.73575 27.4635,30.37825 23.597,35.22125 L36.05825,35.22125 L36.05825,35.2215 Z"
                      id="Shape" fill="#FFAF18"></path>
                <path d="M10.151,19.19925 L10.14625,19.184 L2.62475,35.22125 L15.08575,35.22125 C11.22525,30.38525 9.589,24.73125 10.151,19.19925 Z"
                      id="Shape" fill="#FFAF18"></path>
                <path d="M95.162,53.02075 L95.162,53.02075 C98.061,53.02075 100.43275,54.949 100.43275,57.30575 L100.43275,67.20425 C100.43275,69.561 98.06075,71.48925 95.162,71.48925 L95.162,71.48925 L95.162,53.02075 Z"
                      id="Shape" fill="#00315E"></path>
                <path d="M32.851,71.489 L32.851,71.489 C29.952,71.489 27.58025,69.56075 27.58025,67.204 L27.58025,57.3055 C27.58025,54.94875 29.95225,53.0205 32.851,53.0205 L32.851,53.0205 L32.851,71.489 Z"
                      id="Shape" fill="#00315E"></path>
                <path d="M53.466,79.7795 L53.466,84.86775 C53.466,86.5675 52.444,88.10075 50.87475,88.755 L34.0645,95.75925 C30.513,97.23925 28.19975,101.26125 28.19975,105.1085 L28.19975,125.3815 L99.78775,125.3815 L99.78775,105.1085 C99.78775,101.26125 97.47425,97.23875 93.923,95.75925 L77.1125,88.755 C75.54325,88.10125 74.52125,86.56775 74.52125,84.86775 L74.52125,79.7795 L53.466,79.7795 L53.466,79.7795 L53.466,79.7795 Z"
                      id="Shape" fill="#FEBBA0"></path>
                <path d="M93.92275,95.759 L77.1125,88.755 C75.8125,88.2135 74.89025,87.06775 74.61125,85.724 C72.39025,89.24 68.47225,91.57725 64.00625,91.57725 C59.52725,91.57725 55.599,89.2265 53.38175,85.6935 C53.1105,87.05025 52.1845,88.20925 50.8745,88.75525 L34.06425,95.7595 C30.51275,97.2395 28.1995,101.2615 28.1995,105.10875 L28.1995,125.38175 L99.7875,125.38175 L99.7875,105.10875 C99.7875,101.26125 97.474,97.23875 93.92275,95.759 Z"
                      id="Shape" fill="#1990DF"></path>
                <path d="M92.47475,44.26975 L92.47475,49.06025 L92.47475,63.23725 L92.47475,68.5295 C92.1335,72.99225 89.9065,76.966 86.61075,79.14225 L69.52625,88.9385 C66.0855,91.211 61.9015,91.211 58.46075,88.9385 L41.325,79.14225 C38.02975,76.966 35.8535,72.9925 35.512,68.5295 L35.512,63.23725 L35.512,49.06025 L35.512,44.26975 L35.62325,44.26975 L92.47475,44.26975 L92.47475,44.26975 Z"
                      id="Shape" fill="#FEBBA0"></path>
                <path d="M81.316,89.016 C88.96275,89.016 95.16175,82.817 95.16175,75.17025 L95.16175,56.24575 C95.16175,38.33 82.6895,26.355 67.30425,26.355 L60.70825,26.355 C45.323,26.355 32.85075,38.33025 32.85075,56.24575 L32.85075,75.17025 C32.85075,82.817 39.04975,89.016 46.6965,89.016 L81.316,89.016 Z M76.86825,79.116 L51.50575,79.116 C47.8855,79.116 44.9235,76.154 44.9235,72.53375 L44.9235,53.43125 C44.9235,49.811 47.8855,46.849 51.50575,46.849 L76.86825,46.849 C80.4885,46.849 83.4505,49.811 83.4505,53.43125 L83.4505,72.53375 C83.4505,76.154 80.4885,79.116 76.86825,79.116 Z"
                      id="Shape" fill="#1990DF"></path>
                <path d="M73.5195,58.8685 C71.90975,58.8685 70.59975,57.55875 70.59975,55.949 C70.59975,54.339 71.90975,53.02925 73.5195,53.02925 C75.12925,53.02925 76.439,54.339 76.439,55.949 C76.43875,57.55875 75.12925,58.8685 73.5195,58.8685 Z"
                      id="Shape" fill="#000000"></path>
                <path d="M54.46775,58.8685 C52.858,58.8685 51.54825,57.55875 51.54825,55.949 C51.54825,54.339 52.858,53.02925 54.46775,53.02925 C56.0775,53.02925 57.3875,54.339 57.3875,55.949 C57.38725,57.55875 56.0775,58.8685 54.46775,58.8685 Z"
                      id="Shape" fill="#000000"></path>
                <path d="M64.0045,73.1125 C61.157,73.1125 58.84,70.79575 58.84,67.948 C58.84,66.5055 60.00975,65.336 61.452,65.336 L66.55675,65.336 C67.999,65.336 69.16875,66.5055 69.16875,67.948 C69.16875,70.7955 66.85225,73.1125 64.0045,73.1125 Z"
                      id="Shape" fill="#000000"></path>
                <path d="M2.64625,122.76925 L2.612,122.76925 C1.16975,122.76925 0,123.93875 0,125.38125 C0,126.82375 1.16975,127.99325 2.612,127.99325 L2.64625,127.99325 C4.0885,127.99325 5.25825,126.82375 5.25825,125.38125 C5.25825,123.93875 4.0885,122.76925 2.64625,122.76925 Z"
                      id="Shape" fill="#000000"></path>
                <path d="M125.37525,122.76925 L125.341,122.76925 C123.89875,122.76925 122.729,123.93875 122.729,125.38125 C122.729,126.82375 123.89875,127.99325 125.341,127.99325 L125.37525,127.99325 C126.8175,127.99325 127.98725,126.82375 127.98725,125.38125 C127.98725,123.93875 126.8175,122.76925 125.37525,122.76925 Z"
                      id="Shape" fill="#000000"></path>
                <path d="M96.04475,3.92325 L94.73975,3.92325 L94.73975,2.61825 C94.73975,1.17575 93.57,0.00625 92.12775,0.00625 C90.6855,0.00625 89.51575,1.17575 89.51575,2.61825 L89.51575,3.92325 L88.21075,3.92325 C86.7685,3.92325 85.59875,5.09275 85.59875,6.53525 C85.59875,7.97775 86.7685,9.14725 88.21075,9.14725 L89.51575,9.14725 L89.51575,10.4525 C89.51575,11.895 90.6855,13.0645 92.12775,13.0645 C93.57,13.0645 94.73975,11.895 94.73975,10.4525 L94.73975,9.14725 L96.04475,9.14725 C97.487,9.14725 98.65675,7.97775 98.65675,6.53525 C98.65675,5.09275 97.487,3.92325 96.04475,3.92325 Z"
                      id="Shape" fill="#000000"></path>
                <path d="M10.48025,84.1135 L9.17525,84.1135 L9.17525,82.8085 C9.17525,81.366 8.0055,80.1965 6.56325,80.1965 C5.121,80.1965 3.95125,81.366 3.95125,82.8085 L3.95125,84.1135 L2.646,84.1135 C1.20375,84.1135 0.034,85.283 0.034,86.7255 C0.034,88.168 1.20375,89.3375 2.646,89.3375 L3.95125,89.3375 L3.95125,90.64275 C3.95125,92.08525 5.121,93.25475 6.56325,93.25475 C8.0055,93.25475 9.17525,92.08525 9.17525,90.64275 L9.17525,89.3375 L10.48025,89.3375 C11.9225,89.3375 13.09225,88.168 13.09225,86.7255 C13.09225,85.283 11.92275,84.1135 10.48025,84.1135 Z"
                      id="Shape" fill="#000000"></path>
                <path d="M118.0735,99.965 L116.7685,99.965 L116.7685,98.66 C116.7685,97.2175 115.59875,96.048 114.1565,96.048 C112.71425,96.048 111.5445,97.2175 111.5445,98.66 L111.5445,99.965 L110.2395,99.965 C108.79725,99.965 107.6275,101.1345 107.6275,102.577 C107.6275,104.0195 108.79725,105.189 110.2395,105.189 L111.5445,105.189 L111.5445,106.49425 C111.5445,107.93675 112.71425,109.10625 114.1565,109.10625 C115.59875,109.10625 116.7685,107.93675 116.7685,106.49425 L116.7685,105.189 L118.0735,105.189 C119.51575,105.189 120.6855,104.0195 120.6855,102.577 C120.6855,101.13425 119.51575,99.965 118.0735,99.965 Z"
                      id="Shape" fill="#000000"></path>
                <path d="M125.388,53.69625 L124.083,53.69625 L124.083,52.391 C124.083,50.9485 122.91325,49.779 121.471,49.779 C120.02875,49.779 118.859,50.9485 118.859,52.391 L118.859,53.69625 L117.554,53.69625 C116.11175,53.69625 114.942,54.86575 114.942,56.30825 C114.942,57.75075 116.11175,58.92025 117.554,58.92025 L118.859,58.92025 L118.859,60.22525 C118.859,61.66775 120.02875,62.83725 121.471,62.83725 C122.91325,62.83725 124.083,61.66775 124.083,60.22525 L124.083,58.92025 L125.388,58.92025 C126.83025,58.92025 128,57.75075 128,56.30825 C128,54.86575 126.83025,53.69625 125.388,53.69625 Z"
                      id="Shape" fill="#000000"></path>
                <path d="M73.256,81.728 C80.3175,81.728 86.0625,75.983 86.0625,68.9215 L86.0625,57.044 C86.0625,49.9825 80.3175,44.2375 73.256,44.2375 L55.11875,44.2375 C48.05725,44.2375 42.31225,49.9825 42.31225,57.044 L42.31225,68.9215 C42.31225,75.98325 48.05725,81.728 55.11875,81.728 L73.256,81.728 Z M47.53575,68.9215 L47.53575,57.044 C47.53575,52.863 50.93725,49.4615 55.11825,49.4615 L73.2555,49.4615 C77.43675,49.4615 80.838,52.863 80.838,57.044 L80.838,68.9215 C80.838,73.1025 77.43675,76.504 73.2555,76.504 L55.11825,76.504 C50.9375,76.504 47.53575,73.1025 47.53575,68.9215 Z"
                      id="Shape" fill="#000000"></path>
                <path d="M116.8905,122.76925 L102.3995,122.76925 L102.3995,105.10825 C102.3995,100.01675 99.32675,95.181 94.92775,93.34775 L87.70325,90.33775 C93.615,87.83875 97.77425,81.98125 97.77425,75.17025 L97.77425,73.71 C100.8405,72.76475 103.045,70.206 103.045,67.204 L103.045,57.3055 C103.045,54.1745 100.6475,51.52625 97.375,50.687 C96.36125,43.72325 93.4355,37.49375 88.88425,32.76925 C83.27675,26.94825 75.613,23.74225 67.30475,23.74225 L60.709,23.74225 C52.4005,23.74225 44.737,26.948 39.1295,32.76925 C34.578,37.49375 31.6525,43.72325 30.63875,50.687 C27.36625,51.526 24.96875,54.1745 24.96875,57.3055 L24.96875,67.204 C24.96875,70.206 27.173,72.76475 30.2395,73.71 L30.2395,75.17025 C30.2395,81.9765 34.3925,87.83075 40.2975,90.33275 L33.0605,93.34825 C28.66125,95.18125 25.58875,100.0175 25.58875,105.1085 L25.58875,122.7695 L11.097,122.7695 C9.65475,122.7695 8.485,123.939 8.485,125.3815 C8.485,126.824 9.65475,127.9935 11.097,127.9935 L116.891,127.9935 C118.33325,127.9935 119.503,126.824 119.503,125.3815 C119.503,123.939 118.33275,122.76925 116.8905,122.76925 Z M30.239,67.48275 C30.20925,67.3895 30.19225,67.29625 30.19225,67.204 L30.19225,57.3055 C30.19225,57.21325 30.20925,57.12 30.239,57.02675 L30.239,67.48275 Z M97.8205,67.204 C97.8205,67.29625 97.8035,67.3895 97.77375,67.48275 L97.77375,57.027 C97.8035,57.12 97.8205,57.2135 97.8205,57.30575 L97.8205,67.204 Z M35.463,75.1705 L35.463,56.24575 C35.463,40.43925 46.08025,28.96675 60.7085,28.96675 L67.30425,28.96675 C81.93275,28.96675 92.54975,40.439 92.54975,56.24575 L92.54975,75.1705 C92.54975,81.36475 87.51025,86.4045 81.31575,86.4045 L46.6965,86.4045 C40.50225,86.404 35.463,81.36475 35.463,75.1705 Z M61.3945,122.76925 L30.81175,122.76925 L30.81175,105.10825 C30.81175,102.93525 31.81025,100.744 33.3085,99.337 C38.22225,105.24 48.976,109.23475 61.3945,109.729 L61.3945,122.76925 Z M38.15575,96.884 L50.77025,91.628 L77.21675,91.628 L89.849,96.8915 C85.63725,100.951 76.2425,104.5585 64.006,104.5585 C51.76,104.55825 42.3635,100.9475 38.15575,96.884 Z M97.1755,122.76925 L66.6185,122.76925 L66.6185,109.72925 C79.02525,109.23525 89.7745,105.246 94.69325,99.35075 C96.1835,100.758 97.176,102.94225 97.176,105.10825 L97.176,122.76925 L97.1755,122.76925 Z"
                      id="Shape" fill="#000000"></path>
                <path d="M38.423,34.1125 L31.079,18.45325 C31.0775,18.44 31.07625,18.4265 31.0745,18.413 C30.25525,11.89975 26.675,5.7595 20.99275,1.123 C20.03525,0.34175 18.6615,0.3385 17.7005,1.11475 C11.801,5.87825 8.3815,12.0645 7.595,18.47225 L0.26,34.1125 C-0.1195,34.9215 -0.059,35.86825 0.4205,36.6225 C0.89975,37.3765 1.7315,37.8335 2.62475,37.8335 L12.7305,37.8335 C12.51225,41.1535 13.73425,44.49675 16.19,46.85025 C16.20175,46.8615 16.21375,46.87275 16.22575,46.88375 L17.68175,48.2275 C18.182,48.68925 18.81775,48.92025 19.45325,48.92025 C20.08875,48.92025 20.7245,48.68925 21.22475,48.2275 L22.68075,46.88375 C22.7065,46.86025 22.7315,46.836 22.75625,46.8115 C25.19225,44.37525 26.39075,41.09575 26.17825,37.83325 L36.05775,37.83325 C36.95125,37.83325 37.78275,37.3765 38.262,36.62225 C38.74175,35.86825 38.8025,34.92125 38.423,34.1125 Z M19.333,6.62575 C27.0135,14.01625 28.22375,24.30725 22.298,32.6095 L16.38475,32.6095 C13.44525,28.49625 12.251,23.91 12.7155,19.436 L20.03825,19.436 C21.4805,19.436 22.65025,18.2665 22.65025,16.824 C22.65025,15.3815 21.4805,14.212 20.03825,14.212 L14.04025,14.212 C15.15875,11.496 16.92925,8.91775 19.333,6.62575 Z M8.586,28.662 C9.021,30.0005 9.5775,31.32 10.25875,32.6095 L6.73475,32.6095 L8.586,28.662 Z M19.44525,42.703 C18.27925,41.3725 17.75325,39.58175 17.97025,37.8335 L20.942,37.8335 C21.161,39.55925 20.6365,41.3035 19.44525,42.703 Z M28.41875,32.6095 C29.09475,31.32475 29.65325,30.0005 30.09075,28.649 L31.94825,32.6095 L28.41875,32.6095 Z"
                      id="Shape" fill="#000000"></path>
                <path d="M19.3415,61.9975 C17.89925,61.9975 16.7295,60.828 16.7295,59.3855 L16.7295,52.39125 C16.7295,50.94875 17.89925,49.77925 19.3415,49.77925 C20.78375,49.77925 21.9535,50.94875 21.9535,52.39125 L21.9535,59.3855 C21.9535,60.828 20.78375,61.9975 19.3415,61.9975 Z"
                      id="Shape" fill="#000000"></path>
                <path d="M11.08,55.33425 C9.63775,55.33425 8.468,54.16475 8.468,52.72225 L8.468,45.728 C8.468,44.2855 9.63775,43.116 11.08,43.116 C12.52225,43.116 13.692,44.2855 13.692,45.728 L13.692,52.722 C13.692,54.16475 12.52225,55.33425 11.08,55.33425 Z"
                      id="Shape" fill="#000000"></path>
                <path d="M27.603,50.4175 C26.16075,50.4175 24.991,49.248 24.991,47.8055 L24.991,45.728 C24.991,44.2855 26.16075,43.116 27.603,43.116 C29.04525,43.116 30.215,44.2855 30.215,45.728 L30.215,47.8055 C30.215,49.248 29.04525,50.4175 27.603,50.4175 Z"
                      id="Shape" fill="#000000"></path>
                <path d="M47.24625,42.81025 C46.58025,42.81025 45.91425,42.55725 45.4045,42.05075 C44.38175,41.03375 44.37675,39.37975 45.39375,38.357 L45.49225,38.25975 C46.52675,37.2545 48.18075,37.27875 49.18575,38.3135 C50.19075,39.34825 50.1665,41.002 49.13175,42.007 L49.0985,42.04 C48.5885,42.55325 47.917,42.81025 47.24625,42.81025 Z"
                      id="Shape" fill="#000000"></path>
                <path d="M80.7665,42.81025 C80.1015,42.81025 79.43675,42.55825 78.9275,42.053 C75.654,38.80675 71.22525,37.01925 66.45675,37.01925 L61.55625,37.01925 C59.09125,37.01925 56.73125,37.4855 54.541,38.40475 C53.211,38.9635 51.67975,38.33725 51.12175,37.007 C50.56325,35.677 51.1895,34.146 52.5195,33.588 C55.3535,32.3985 58.39375,31.79575 61.55675,31.79575 L66.45725,31.79575 C72.61275,31.79575 78.34775,34.1215 82.606,38.34425 C83.6305,39.36 83.63725,41.01375 82.62175,42.038 C82.11025,42.5525 81.43825,42.81025 80.7665,42.81025 Z"
                      id="Shape" fill="#000000"></path>
            </g>
        </g>
    </g>
</svg>